<svg viewBox="0 0 241 241" xmlns="http://www.w3.org/2000/svg" fill-rule="evenodd" clip-rule="evenodd" stroke-linecap="round" stroke-linejoin="round" stroke-miterlimit="3"><path d="M239.501 17c0-8.831-7.17-16-16-16H17C8.169 1 1 8.169 1 17v206.501c0 8.83 7.169 16 16 16h206.501c8.83 0 16-7.17 16-16V17z" fill="none"/><clipPath id="a"><path d="M239.501 17c0-8.831-7.17-16-16-16H17C8.169 1 1 8.169 1 17v206.501c0 8.83 7.169 16 16 16h206.501c8.83 0 16-7.17 16-16V17z"/></clipPath><g clip-path="url(#a)" fill="#767676" fill-rule="nonzero"><path d="M154.239 102.4a44.198 44.198 0 0 1-4.376 7.867c-2.3 3.281-4.184 5.552-5.636 6.813-2.251 2.07-4.663 3.13-7.245 3.19-1.854 0-4.089-.528-6.692-1.598-2.611-1.065-5.01-1.592-7.204-1.592-2.301 0-4.769.527-7.408 1.592-2.644 1.07-4.773 1.628-6.402 1.683-2.476.106-4.944-.984-7.408-3.275-1.572-1.372-3.539-3.723-5.895-7.054-2.529-3.557-4.607-7.681-6.235-12.384-1.744-5.079-2.618-9.997-2.618-14.759 0-5.454 1.179-10.159 3.539-14.101 1.856-3.167 4.324-5.665 7.413-7.498 3.089-1.834 6.427-2.768 10.022-2.828 1.967 0 4.546.608 7.751 1.804 3.196 1.2 5.249 1.808 6.148 1.808.673 0 2.953-.711 6.818-2.13 3.655-1.315 6.739-1.86 9.266-1.645 6.848.553 11.992 3.252 15.414 8.115-6.124 3.711-9.154 8.908-9.094 15.575.056 5.193 1.94 9.515 5.642 12.946a18.53 18.53 0 0 0 5.637 3.698 60.575 60.575 0 0 1-1.437 3.773zm-15.704-61.799c0 4.07-1.488 7.871-4.452 11.389-3.577 4.181-7.903 6.598-12.595 6.217a12.651 12.651 0 0 1-.094-1.543c0-3.907 1.701-8.089 4.721-11.509 1.509-1.731 3.427-3.17 5.753-4.319 2.321-1.131 4.516-1.756 6.581-1.863.06.544.086 1.088.086 1.628zM55.578 174.045h1.758l-6.58-17.615h-1.66l-6.592 17.615h1.77l1.953-5.396h7.398l1.953 5.396zm-5.689-15.552h.073l3.162 8.716h-6.396l3.161-8.716zM59.276 156.43v17.615h1.661v-6.641h4.321c3.357 0 5.664-2.222 5.664-5.493 0-3.272-2.283-5.481-5.652-5.481h-5.994zm1.661 1.489h3.942c2.723 0 4.334 1.49 4.334 3.992s-1.624 4.004-4.334 4.004h-3.942v-7.996zM73.315 156.43v17.615h1.66v-6.641h4.321c3.357 0 5.664-2.222 5.664-5.493 0-3.272-2.283-5.481-5.652-5.481h-5.993zm1.66 1.489h3.943c2.722 0 4.333 1.49 4.333 3.992s-1.623 4.004-4.333 4.004h-3.943v-7.996zM97.838 172.531h-8.825V156.43h-1.66v17.615h10.485v-1.514zM110.827 172.531h-8.972v-6.763h8.52v-1.489h-8.52v-6.335h8.972v-1.514h-10.633v17.615h10.633v-1.514zM118.786 156.43v17.615h5.713c5.285 0 8.349-3.235 8.349-8.814 0-5.566-3.076-8.801-8.349-8.801h-5.713zm1.672 1.514h3.943c4.333 0 6.75 2.612 6.75 7.299 0 4.676-2.417 7.288-6.75 7.288h-3.943v-14.587zM146.068 172.531h-8.972v-6.763h8.521v-1.489h-8.521v-6.335h8.972v-1.514h-10.632v17.615h10.632v-1.514zM147.777 169.345c.184 2.979 2.759 4.981 6.519 4.981 3.821 0 6.335-2.015 6.335-5.14 0-2.441-1.452-3.82-5.078-4.638l-1.916-.44c-2.613-.586-3.699-1.599-3.699-3.198 0-2.002 1.892-3.247 4.273-3.247 2.502 0 4.248 1.343 4.418 3.357h1.673c-.098-2.832-2.625-4.871-6.055-4.871-3.454 0-6.018 1.99-6.018 4.834 0 2.429 1.465 3.931 4.968 4.712l1.917.427c2.71.623 3.808 1.624 3.808 3.284 0 2.002-1.892 3.406-4.541 3.406-2.758 0-4.724-1.355-4.931-3.467h-1.673zM163.061 156.43h1.66v17.615h-1.66zM182.531 166.891v-1.696h-7.129v1.465h5.469v.622c0 3.32-2.246 5.493-5.652 5.493-3.772 0-6.201-2.99-6.201-7.641 0-4.59 2.38-7.434 6.201-7.434 2.685 0 4.748 1.513 5.469 4.028h1.733c-.659-3.369-3.503-5.579-7.202-5.579-4.81 0-7.91 3.528-7.91 8.985 0 5.554 3.137 9.192 7.91 9.192 4.577 0 7.312-2.784 7.312-7.435zM186.864 174.045v-14.722h.086l10.364 14.722h1.611V156.43h-1.648v14.709h-.086l-10.327-14.709h-1.648v17.615h1.648zM46.618 209.045h1.758l-6.58-17.615h-1.66l-6.592 17.615h1.77l1.953-5.396h7.398l1.953 5.396zm-5.689-15.552h.074l3.161 8.716h-6.396l3.161-8.716zM58.385 194.286h.098l4.333 14.759h1.539l4.858-17.615h-1.746l-3.869 15.051h-.086l-4.248-15.051h-1.66l-4.26 15.051h-.073l-3.882-15.051h-1.734l4.847 17.615h1.55l4.333-14.759zM81.518 209.045h1.757l-6.579-17.615h-1.66l-6.592 17.615h1.77l1.953-5.396h7.398l1.953 5.396zm-5.689-15.552h.073l3.162 8.716h-6.396l3.161-8.716zM86.877 192.919h4.357c2.564 0 4.114 1.38 4.114 3.711 0 2.356-1.489 3.723-4.053 3.723h-4.418v-7.434zm0 8.911h4.687l4.053 7.215h1.953l-4.273-7.483c2.356-.61 3.772-2.49 3.772-4.981 0-3.137-2.197-5.151-5.639-5.151h-6.214v17.615h1.661v-7.215zM99.779 191.43v17.615h5.713c5.286 0 8.35-3.235 8.35-8.814 0-5.566-3.076-8.801-8.35-8.801h-5.713zm1.673 1.514h3.943c4.333 0 6.75 2.612 6.75 7.299 0 4.676-2.417 7.288-6.75 7.288h-3.943v-14.587zM131.164 194.286h.097l4.334 14.759h1.538l4.858-17.615h-1.745l-3.87 15.051h-.085l-4.248-15.051h-1.661l-4.26 15.051h-.073l-3.882-15.051h-1.733l4.846 17.615h1.55l4.334-14.759zM144.176 191.43h1.66v17.615h-1.66zM150.78 209.045v-14.722h.086l10.364 14.722h1.611V191.43h-1.648v14.709h-.086L150.78 191.43h-1.648v17.615h1.648zM167.785 209.045v-14.722h.085l10.364 14.722h1.611V191.43h-1.648v14.709h-.085l-10.327-14.709h-1.648v17.615h1.648zM193.774 207.531h-8.973v-6.763h8.521v-1.489h-8.521v-6.335h8.973v-1.514h-10.633v17.615h10.633v-1.514zM198.278 192.919h4.358c2.563 0 4.114 1.38 4.114 3.711 0 2.356-1.49 3.723-4.053 3.723h-4.419v-7.434zm0 8.911h4.687l4.053 7.215h1.953l-4.272-7.483c2.356-.61 3.772-2.49 3.772-4.981 0-3.137-2.197-5.151-5.64-5.151h-6.213v17.615h1.66v-7.215z"/></g><path d="M239.501 17c0-8.831-7.17-16-16-16H17C8.169 1 1 8.169 1 17v206.501c0 8.83 7.169 16 16 16h206.501c8.83 0 16-7.17 16-16V17z" fill="none" stroke="#767676" stroke-width="2"/></svg>