<svg viewBox="0 0 241 241" xmlns="http://www.w3.org/2000/svg" fill-rule="evenodd" clip-rule="evenodd" stroke-linecap="round" stroke-linejoin="round" stroke-miterlimit="3"><path d="M239.501 17c0-8.831-7.17-16-16-16H17C8.169 1 1 8.169 1 17v206.501c0 8.83 7.169 16 16 16h206.501c8.83 0 16-7.17 16-16V17z" fill="none"/><clipPath id="a"><path d="M239.501 17c0-8.831-7.17-16-16-16H17C8.169 1 1 8.169 1 17v206.501c0 8.83 7.169 16 16 16h206.501c8.83 0 16-7.17 16-16V17z"/></clipPath><g clip-path="url(#a)" fill="#767676" fill-rule="nonzero"><path d="M154.239 102.4a44.198 44.198 0 0 1-4.376 7.867c-2.3 3.281-4.184 5.552-5.636 6.813-2.251 2.07-4.663 3.13-7.245 3.19-1.854 0-4.089-.528-6.692-1.598-2.611-1.065-5.01-1.592-7.204-1.592-2.301 0-4.769.527-7.408 1.592-2.644 1.07-4.773 1.628-6.402 1.683-2.476.106-4.944-.984-7.408-3.275-1.572-1.372-3.539-3.723-5.895-7.054-2.529-3.557-4.607-7.681-6.235-12.384-1.744-5.079-2.618-9.997-2.618-14.759 0-5.454 1.179-10.159 3.539-14.101 1.856-3.167 4.324-5.665 7.413-7.498 3.089-1.834 6.427-2.768 10.022-2.828 1.967 0 4.546.608 7.751 1.804 3.196 1.2 5.249 1.808 6.148 1.808.673 0 2.953-.711 6.818-2.13 3.655-1.315 6.739-1.86 9.266-1.645 6.848.553 11.992 3.252 15.414 8.115-6.124 3.711-9.154 8.908-9.094 15.575.056 5.193 1.94 9.515 5.642 12.946a18.53 18.53 0 0 0 5.637 3.698 60.575 60.575 0 0 1-1.437 3.773zm-15.704-61.799c0 4.07-1.488 7.871-4.452 11.389-3.577 4.181-7.903 6.598-12.595 6.217a12.651 12.651 0 0 1-.094-1.543c0-3.907 1.701-8.089 4.721-11.509 1.509-1.731 3.427-3.17 5.753-4.319 2.321-1.131 4.516-1.756 6.581-1.863.06.544.086 1.088.086 1.628zM75.555 174.045h1.757l-6.579-17.615h-1.66l-6.592 17.615h1.77l1.953-5.396h7.397l1.954 5.396zm-5.689-15.552h.073l3.162 8.716h-6.397l3.162-8.716zM79.253 156.43v17.615h1.66v-6.641h4.322c3.357 0 5.664-2.222 5.664-5.493 0-3.272-2.283-5.481-5.652-5.481h-5.994zm1.66 1.489h3.943c2.722 0 4.334 1.49 4.334 3.992s-1.624 4.004-4.334 4.004h-3.943v-7.996zM93.291 156.43v17.615h1.66v-6.641h4.322c3.357 0 5.664-2.222 5.664-5.493 0-3.272-2.283-5.481-5.652-5.481h-5.994zm1.66 1.489h3.943c2.723 0 4.334 1.49 4.334 3.992s-1.624 4.004-4.334 4.004h-3.943v-7.996zM117.815 172.531h-8.825V156.43h-1.661v17.615h10.486v-1.514zM130.804 172.531h-8.973v-6.763h8.521v-1.489h-8.521v-6.335h8.973v-1.514h-10.633v17.615h10.633v-1.514zM150.469 174.045h1.758l-6.58-17.615h-1.66l-6.592 17.615h1.77l1.953-5.396h7.398l1.953 5.396zm-5.688-15.552h.073l3.161 8.716h-6.396l3.162-8.716zM154.168 156.43v17.615h1.66v-6.641h4.321c3.357 0 5.664-2.222 5.664-5.493 0-3.272-2.282-5.481-5.652-5.481h-5.993zm1.66 1.489h3.943c2.722 0 4.333 1.49 4.333 3.992s-1.623 4.004-4.333 4.004h-3.943v-7.996zM168.206 156.43v17.615h1.66v-6.641h4.321c3.357 0 5.664-2.222 5.664-5.493 0-3.272-2.282-5.481-5.651-5.481h-5.994zm1.66 1.489h3.943c2.722 0 4.333 1.49 4.333 3.992s-1.623 4.004-4.333 4.004h-3.943v-7.996zM58.324 191.149c-4.907 0-7.995 3.516-7.995 9.094 0 5.579 3.088 9.083 7.995 9.083 4.92 0 8.008-3.504 8.008-9.083 0-5.578-3.1-9.094-8.008-9.094zm0 1.551c3.858 0 6.299 2.917 6.299 7.543 0 4.615-2.441 7.532-6.299 7.532-3.857 0-6.286-2.917-6.286-7.532 0-4.626 2.429-7.543 6.286-7.543zM70.58 209.045v-7.996h8.081v-1.489H70.58v-6.616h8.789v-1.514H68.92v17.615h1.66zM93.285 209.045v-16.101h5.823v-1.514H85.802v1.514h5.811v16.101h1.672zM114.843 209.045V191.43h-1.673v7.837h-10.302v-7.837h-1.66v17.615h1.66v-8.264h10.302v8.264h1.673zM128.771 207.531h-8.972v-6.763h8.52v-1.489h-8.52v-6.335h8.972v-1.514h-10.632v17.615h10.632v-1.514zM143.358 209.045v-7.617l6.312-9.998h-1.905l-5.212 8.362h-.061l-5.213-8.362h-1.904l6.311 9.998v7.617h1.672zM162.243 207.531h-8.972v-6.763h8.52v-1.489h-8.52v-6.335h8.972v-1.514H151.61v17.615h10.633v-1.514zM176.794 209.045h1.757l-6.579-17.615h-1.66l-6.592 17.615h1.77l1.953-5.396h7.397l1.954 5.396zm-5.689-15.552h.073l3.162 8.716h-6.397l3.162-8.716zM182.152 192.919h4.358c2.564 0 4.114 1.38 4.114 3.711 0 2.356-1.489 3.723-4.053 3.723h-4.419v-7.434zm0 8.911h4.688l4.053 7.215h1.953l-4.273-7.483c2.356-.61 3.772-2.49 3.772-4.981 0-3.137-2.197-5.151-5.639-5.151h-6.214v17.615h1.66v-7.215z"/></g><path d="M239.501 17c0-8.831-7.17-16-16-16H17C8.169 1 1 8.169 1 17v206.501c0 8.83 7.169 16 16 16h206.501c8.83 0 16-7.17 16-16V17z" fill="none" stroke="#767676" stroke-width="2"/></svg>