<svg viewBox="0 0 241 152" xmlns="http://www.w3.org/2000/svg" xml:space="preserve" style="fill-rule:evenodd;clip-rule:evenodd;stroke-linejoin:round;stroke-miterlimit:2"><path d="M0 191.237V48.286h232.505v8.495H241v142.13l-.241.581-.58.24H8.495v-8.495H0ZM230.863 56.781v-6.853H1.642v92.623h6.853v-85.77h222.368Zm8.495 85.77V58.424h-6.853v84.127h6.853ZM10.137 191.237v6.853h229.221v-16.475h-6.853v8.801l-.241.581-.58.24H10.137Zm-8.495-9.622v7.98h6.853v-7.98H1.642Zm229.221-39.064V58.424H10.137v84.127h220.726ZM10.137 181.615v7.98h220.726v-7.98H10.137Zm176.12-50.215 6.122-6.009a7.207 7.207 0 0 0 1.177-1.446c.291-.487.438-1.043.438-1.671 0-.747-.243-1.342-.73-1.784-.485-.44-1.087-.66-1.805-.66-.761 0-1.374.257-1.838.773-.463.516-.748 1.162-.851 1.94l-2.625-.403a4.942 4.942 0 0 1 .562-1.816 5.106 5.106 0 0 1 1.143-1.437 5.251 5.251 0 0 1 1.625-.952 5.775 5.775 0 0 1 2.029-.348c.688 0 1.35.097 1.985.292.635.195 1.2.49 1.693.885.493.396.885.883 1.177 1.458.292.575.438 1.245.438 2.007 0 .508-.068.983-.202 1.424a5.647 5.647 0 0 1-.55 1.245 7.755 7.755 0 0 1-.806 1.11c-.307.351-.64.691-.998 1.02l-4.575 4.372h7.153v2.467h-10.562V131.4Zm17.154 0 6.123-6.009a7.2 7.2 0 0 0 1.176-1.446c.292-.487.438-1.043.438-1.671 0-.747-.243-1.342-.729-1.784-.485-.44-1.087-.66-1.805-.66-.762 0-1.375.257-1.838.773-.464.516-.748 1.162-.852 1.94l-2.625-.403a4.942 4.942 0 0 1 .562-1.816 5.106 5.106 0 0 1 1.143-1.437 5.251 5.251 0 0 1 1.625-.952 5.776 5.776 0 0 1 2.03-.348c.688 0 1.349.097 1.984.292.635.195 1.2.49 1.693.885.494.396.885.883 1.177 1.458.292.575.438 1.245.438 2.007 0 .508-.068.983-.201 1.424a5.695 5.695 0 0 1-.55 1.245 7.84 7.84 0 0 1-.807 1.11c-.307.351-.64.691-.998 1.02l-4.575 4.372h7.153v2.467h-10.562V131.4Zm-39.544-42.058c1.686.481 2.409 1.565 2.409 3.614v5.71c0 3.492-1.726 5.218-5.219 5.218H152.7v-28.12h8.277c3.493 0 5.219 1.725 5.219 5.218v4.182c0 2.412-.843 3.616-2.329 4.178Zm-3.252-3.093v-4.664c0-.684-.322-1.005-1.006-1.005h-1.329v6.675h1.329c.684 0 1.006-.322 1.006-1.006Zm.081 11.813v-5.106c0-.684-.322-1.005-1.007-1.005h-1.409v7.117h1.409c.685 0 1.007-.322 1.007-1.006Zm9.322-22.299h5.62v23.104h4.058v5.017h-9.678V75.763Zm26.072 23.144c0 3.492-1.727 5.218-5.219 5.218h-3.62c-3.493 0-5.219-1.726-5.219-5.218V80.741c0-3.493 1.726-5.218 5.219-5.218h3.62c3.492 0 5.219 1.725 5.219 5.218v18.166Zm-5.62-.603v-16.96c0-.684-.322-1.005-1.007-1.005h-.805c-.684 0-1.006.321-1.006 1.005v16.96c0 .683.322 1.005 1.006 1.005h.805c.685 0 1.007-.322 1.007-1.005Zm22.438 2.509 1.996 1.996-2.924 2.923-1.899-1.899c-.628.193-1.35.292-2.174.292h-3.62c-3.493 0-5.219-1.726-5.219-5.218V80.741c0-3.493 1.726-5.219 5.219-5.219h3.62c3.492 0 5.219 1.726 5.219 5.219v18.166c0 .709-.075 1.342-.218 1.906Zm-5.402-2.509v-16.96c0-.684-.322-1.005-1.007-1.005h-.805c-.684 0-1.006.321-1.006 1.005v16.96c0 .683.322 1.005 1.006 1.005h.805c.685 0 1.007-.322 1.007-1.005Zm-180.479 13.76v-1.817h186.946v1.817H27.027Zm6.907 5.927h2.445l6.839 15.876h-3.23l-1.48-3.633h-6.884l-1.435 3.633h-3.162l6.907-15.876Zm3.588 9.822-2.445-6.458-2.489 6.458h4.934Zm8.409-9.822h3.094l3.072 11.66h.045l3.498-11.66h2.915l3.431 11.66h.044l3.14-11.66h3.004l-4.641 15.876h-2.736l-3.722-11.907h-.045l-3.722 11.907h-2.736l-4.641-15.876Zm31.415 0h2.445l6.839 15.876h-3.229l-1.48-3.633h-6.884l-1.435 3.633h-3.163l6.907-15.876Zm3.588 9.822-2.444-6.458-2.49 6.458h4.934Zm10.294-9.822h5.515c.748 0 1.472.078 2.175.235a5.623 5.623 0 0 1 1.873.774c.545.359.982.83 1.312 1.412.328.583.493 1.293.493 2.131 0 1.151-.325 2.088-.976 2.813-.65.727-1.535 1.215-2.657 1.47l4.238 7.041h-3.408l-3.678-6.727h-2.063v6.727h-2.824v-15.876Zm5.134 6.839c.403 0 .807-.03 1.211-.09a3.502 3.502 0 0 0 1.087-.335c.322-.165.587-.401.796-.707.209-.307.314-.698.314-1.178 0-.433-.097-.788-.292-1.065a2.168 2.168 0 0 0-.739-.662 3.133 3.133 0 0 0-1.02-.336 7.277 7.277 0 0 0-1.11-.09h-2.557v4.463h2.31Zm11.997-6.839h5.627c1.032 0 2.07.135 3.117.403a8.11 8.11 0 0 1 2.826 1.335c.837.62 1.517 1.435 2.04 2.444.523 1.009.785 2.261.785 3.756 0 1.39-.262 2.587-.785 3.588-.523 1.002-1.203 1.824-2.04 2.466a8.534 8.534 0 0 1-2.826 1.424c-1.047.306-2.085.46-3.117.46h-5.627v-15.876Zm5.179 13.409c.732 0 1.465-.086 2.198-.258a5.688 5.688 0 0 0 1.983-.875c.592-.41 1.074-.967 1.447-1.67s.561-1.592.561-2.668c0-1.136-.188-2.063-.561-2.781-.373-.718-.855-1.278-1.447-1.681a5.381 5.381 0 0 0-1.983-.83 10.94 10.94 0 0 0-2.198-.225h-2.354V131.4h2.354Zm23.074-10.09c-.299-.389-.722-.715-1.267-.976a3.79 3.79 0 0 0-2.635-.269c-.329.082-.628.21-.896.382-.27.171-.49.395-.662.672-.173.276-.258.609-.258.998 0 .358.075.665.224.92.15.253.355.47.617.649.261.18.579.337.952.472.374.134.785.268 1.234.403.508.165 1.034.352 1.581.56.545.21 1.046.487 1.503.83.455.345.83.778 1.12 1.3.292.525.438 1.175.438 1.952 0 .851-.157 1.596-.472 2.231a4.58 4.58 0 0 1-1.255 1.581 5.373 5.373 0 0 1-1.839.942 7.78 7.78 0 0 1-2.22.313 8.31 8.31 0 0 1-3.026-.572c-.987-.381-1.795-.945-2.423-1.693l2.018-1.883c.39.538.908.964 1.559 1.278.651.314 1.289.47 1.917.47.329 0 .665-.04 1.01-.123.344-.082.653-.22.93-.415.277-.193.5-.436.673-.728.172-.292.257-.653.257-1.087 0-.418-.097-.766-.29-1.043a2.637 2.637 0 0 0-.785-.718 5.622 5.622 0 0 0-1.167-.526l-1.413-.472a14.022 14.022 0 0 1-1.435-.537 4.774 4.774 0 0 1-1.289-.83 4.012 4.012 0 0 1-.93-1.268c-.24-.5-.359-1.123-.359-1.871 0-.808.167-1.503.504-2.087a4.483 4.483 0 0 1 1.323-1.446 5.932 5.932 0 0 1 1.861-.852 8.168 8.168 0 0 1 2.12-.28c.807 0 1.625.142 2.455.427.83.283 1.551.71 2.164 1.278l-1.839 2.018Zm16.234 10.09 6.123-6.009a7.2 7.2 0 0 0 1.176-1.446c.292-.487.438-1.043.438-1.671 0-.747-.243-1.342-.729-1.784-.486-.44-1.087-.66-1.805-.66-.762 0-1.376.257-1.839.773-.463.516-.748 1.162-.851 1.94l-2.625-.403a4.942 4.942 0 0 1 .562-1.816 5.106 5.106 0 0 1 1.143-1.437 5.251 5.251 0 0 1 1.625-.952 5.776 5.776 0 0 1 2.03-.348 6.73 6.73 0 0 1 1.985.292 5.06 5.06 0 0 1 1.693.885c.493.396.885.883 1.176 1.458.292.575.438 1.245.438 2.007 0 .508-.068.983-.202 1.424a5.644 5.644 0 0 1-.549 1.245 7.84 7.84 0 0 1-.807 1.11c-.306.351-.64.691-.998 1.02l-4.575 4.372h7.153v2.467h-10.562V131.4Zm27.603-5.471c0 1.285-.123 2.444-.37 3.475-.246 1.032-.604 1.906-1.076 2.625-.47.716-1.053 1.27-1.748 1.658-.697.388-1.492.583-2.388.583-.898 0-1.698-.195-2.4-.583-.703-.388-1.293-.942-1.772-1.658-.479-.719-.841-1.593-1.087-2.625-.247-1.031-.371-2.19-.371-3.475 0-1.286.124-2.444.371-3.476.246-1.031.608-1.906 1.087-2.623.479-.718 1.069-1.271 1.772-1.66.702-.388 1.502-.583 2.4-.583.896 0 1.691.195 2.388.583.695.389 1.278.942 1.748 1.66.472.717.83 1.592 1.076 2.623.247 1.032.37 2.19.37 3.476Zm-2.758 0c0-.553-.033-1.181-.101-1.884a9.47 9.47 0 0 0-.403-1.995c-.202-.628-.49-1.155-.864-1.581-.373-.427-.859-.639-1.456-.639-.614 0-1.107.212-1.481.639-.374.426-.662.953-.864 1.581a9.937 9.937 0 0 0-.415 1.995 17.92 17.92 0 0 0-.111 1.884c0 .554.036 1.18.111 1.884.075.703.213 1.359.415 1.973.202.613.49 1.132.864 1.558.374.426.867.639 1.481.639.597 0 1.083-.213 1.456-.639.374-.426.662-.945.864-1.558a9.09 9.09 0 0 0 .403-1.973c.068-.704.101-1.33.101-1.884Zm-51.151-22.045h-7.39l-3.776-28.121h5.704l1.968 19.966 2.049-19.966h5.221l-3.776 28.121Zm6.915-28.121h10.442v5.018h-4.822v6.313h4.621v5.017h-4.621v6.756h4.902v5.017h-10.522V75.763ZM34.454 91.472h5.54v7.435c0 3.492-1.727 5.218-5.219 5.218h-3.46c-3.493 0-5.219-1.726-5.219-5.218V80.741c0-3.493 1.726-5.219 5.219-5.219h3.38c3.492 0 5.218 1.726 5.218 5.219v6.591h-5.54v-5.988c0-.684-.322-1.005-1.006-1.005h-.644c-.684 0-1.006.321-1.006 1.005v16.96c0 .683.322 1.005 1.006 1.005h.724c.685 0 1.007-.322 1.007-1.005v-6.832Zm20.569-.885c1.726.482 2.449 1.566 2.449 3.614v9.683h-5.621v-9.643c0-.683-.322-1.004-1.006-1.004h-1.41v10.647h-5.62V75.763h8.398c3.492 0 5.218 1.726 5.218 5.218v5.429c0 2.411-.883 3.615-2.408 4.177Zm-3.212-3.132v-5.79c0-.684-.322-1.005-1.006-1.005h-1.37v7.8h1.37c.684 0 1.006-.321 1.006-1.005Zm9.483-11.692h10.441v5.018h-4.821v6.313h4.62v5.017h-4.62v6.756h4.902v5.017H61.294V75.763Zm28.522 28.121h-5.583l-.442-4.098h-3.535l-.402 4.098h-5.101l3.696-28.121h7.671l3.696 28.121Zm-6.547-8.995-1.246-12.255-1.245 12.255h2.491Zm16.512 8.995h-5.62V80.781h-3.416v-5.018h12.451v5.018h-3.415v23.103Zm12.415-28.12v28.12h-5.621v-28.12h5.621Zm15.436 72.637v27.364h4.869v-21.14h.078l12.986 21.14h6.183v-27.364h-4.868v20.485h-.078l-12.715-20.485h-6.455Zm-36.138 0v27.364h4.869v-21.14h.078l12.985 21.14h6.184v-27.364h-4.869v20.485h-.077l-12.716-20.485h-6.454Zm101.841 0v27.364h4.869V164.17h3.556l6.339 11.595h5.874l-7.304-12.135c1.932-.44 3.458-1.282 4.579-2.533 1.122-1.25 1.682-2.865 1.682-4.849 0-1.444-.284-2.668-.85-3.673a6.982 6.982 0 0 0-2.261-2.434c-.941-.619-2.018-1.062-3.228-1.335a17.177 17.177 0 0 0-3.748-.405h-9.508Zm8.85 11.788h-3.981v-7.692h4.406c.618 0 1.256.054 1.913.155a5.345 5.345 0 0 1 1.758.58c.517.284.942.664 1.276 1.141.336.476.502 1.088.502 1.835 0 .826-.181 1.502-.54 2.03a3.665 3.665 0 0 1-1.373 1.218 6.005 6.005 0 0 1-1.873.578c-.697.103-1.393.155-2.088.155Zm-127.58-11.788v27.364h4.869v-27.364h-4.869Zm89.166 0v27.364h18.822v-4.328h-13.954v-7.73H181.2v-4.098h-12.561v-6.957h13.256v-4.251h-18.124Zm-136.744 0 8 27.364h4.715l6.415-20.522h.077l6.417 20.522h4.715l8-27.364h-5.179l-5.411 20.098h-.077l-5.914-20.098h-5.024l-6.029 20.098h-.077l-5.294-20.098h-5.334Z" style="fill:#767676" transform="translate(0 -48.286)"/></svg>