<svg viewBox="0 0 238 228" xmlns="http://www.w3.org/2000/svg" fill-rule="evenodd" clip-rule="evenodd" stroke-linejoin="round" stroke-miterlimit="3"><g fill="#767676"><path d="M1 79.869h235.759" stroke="#767676" stroke-width="2"/><g fill-rule="nonzero"><path d="M27.53 104.469h24.9v7.32H35.75v9.78h15.18v7.32H35.75v10.26h16.98v7.32h-25.2v-42zM84.17 135.909c0 1.68.02 3.36.06 5.04.04 1.68.22 3.54.54 5.58h-5.58l-1.08-3.9h-.24c-.8 1.4-1.95 2.53-3.45 3.39-1.5.86-3.27 1.29-5.31 1.29-3.76 0-6.68-1.24-8.76-3.72-2.08-2.48-3.12-6.36-3.12-11.64 0-5.12 1.16-9.1 3.48-11.94 2.32-2.84 5.72-4.26 10.2-4.26 1.24 0 2.26.07 3.06.21.8.14 1.6.37 2.4.69v-12.18h7.8v31.44zm-13.26 4.8c1.52 0 2.72-.37 3.6-1.11.88-.74 1.5-1.81 1.86-3.21v-12.72c-.56-.44-1.18-.77-1.86-.99-.68-.22-1.56-.33-2.64-.33-2.2 0-3.85.74-4.95 2.22-1.1 1.48-1.65 4.02-1.65 7.62 0 2.56.45 4.62 1.35 6.18.9 1.56 2.33 2.34 4.29 2.34zM91.73 116.469h7.8v30h-7.8v-30zm-1.14-8.46c0-1.16.43-2.15 1.29-2.97.86-.82 2.05-1.23 3.57-1.23s2.75.41 3.69 1.23c.94.82 1.41 1.81 1.41 2.97 0 1.16-.47 2.13-1.41 2.91-.94.78-2.17 1.17-3.69 1.17s-2.71-.39-3.57-1.17c-.86-.78-1.29-1.75-1.29-2.91zM104.03 116.469h4.14v-5.64l7.8-2.22v7.86h7.32v6.6h-7.32v11.52c0 2.08.21 3.57.63 4.47.42.9 1.21 1.35 2.37 1.35.8 0 1.49-.08 2.07-.24.58-.16 1.23-.4 1.95-.72l1.38 6c-1.08.52-2.34.96-3.78 1.32-1.44.36-2.9.54-4.38.54-2.76 0-4.79-.71-6.09-2.13-1.3-1.42-1.95-3.75-1.95-6.99v-15.12h-4.14v-6.6zM126.35 131.469c0-5.08 1.24-8.99 3.72-11.73 2.48-2.74 5.96-4.11 10.44-4.11 2.4 0 4.48.38 6.24 1.14 1.76.76 3.22 1.83 4.38 3.21 1.16 1.38 2.03 3.05 2.61 5.01.58 1.96.87 4.12.87 6.48 0 5.08-1.23 8.99-3.69 11.73s-5.93 4.11-10.41 4.11c-2.4 0-4.48-.38-6.24-1.14-1.76-.76-3.23-1.83-4.41-3.21-1.18-1.38-2.06-3.05-2.64-5.01-.58-1.96-.87-4.12-.87-6.48zm8.04 0c0 1.32.12 2.54.36 3.66s.6 2.1 1.08 2.94c.48.84 1.11 1.49 1.89 1.95.78.46 1.71.69 2.79.69 2.04 0 3.56-.74 4.56-2.22 1-1.48 1.5-3.82 1.5-7.02 0-2.76-.46-4.99-1.38-6.69-.92-1.7-2.48-2.55-4.68-2.55-1.92 0-3.42.72-4.5 2.16-1.08 1.44-1.62 3.8-1.62 7.08zM176.57 123.789c-1.24-.44-2.36-.66-3.36-.66-1.4 0-2.57.37-3.51 1.11-.94.74-1.57 1.69-1.89 2.85v19.38h-7.8v-30h6.06l.9 3.96h.24c.68-1.48 1.6-2.62 2.76-3.42 1.16-.8 2.52-1.2 4.08-1.2 1.04 0 2.22.22 3.54.66l-1.02 7.32zM183.05 104.469h6.84l-2.16 12.96h-4.68v-12.96zM204.35 138.189c0-.8-.34-1.44-1.02-1.92-.68-.48-1.52-.92-2.52-1.32s-2.1-.81-3.3-1.23c-1.2-.42-2.3-1-3.3-1.74s-1.84-1.68-2.52-2.82c-.68-1.14-1.02-2.61-1.02-4.41 0-2.96.88-5.22 2.64-6.78 1.76-1.56 4.3-2.34 7.62-2.34 2.28 0 4.34.24 6.18.72 1.84.48 3.28 1.02 4.32 1.62l-1.74 5.64c-.92-.36-2.08-.74-3.48-1.14-1.4-.4-2.82-.6-4.26-.6-2.32 0-3.48.9-3.48 2.7 0 .72.34 1.3 1.02 1.74.68.44 1.52.85 2.52 1.23s2.1.79 3.3 1.23c1.2.44 2.3 1.01 3.3 1.71s1.84 1.61 2.52 2.73c.68 1.12 1.02 2.56 1.02 4.32 0 3.04-.97 5.43-2.91 7.17-1.94 1.74-4.85 2.61-8.73 2.61-2.12 0-4.11-.27-5.97-.81-1.86-.54-3.37-1.17-4.53-1.89l2.16-5.82c.92.52 2.14 1.03 3.66 1.53s3.08.75 4.68.75c1.16 0 2.09-.22 2.79-.66.7-.44 1.05-1.18 1.05-2.22zM65.9 194.729c-1.28.92-2.91 1.58-4.89 1.98-1.98.4-4.01.6-6.09.6-2.52 0-4.91-.39-7.17-1.17-2.26-.78-4.25-2.04-5.97-3.78-1.72-1.74-3.09-4-4.11-6.78-1.02-2.78-1.53-6.15-1.53-10.11 0-4.12.57-7.57 1.71-10.35 1.14-2.78 2.62-5.02 4.44-6.72 1.82-1.7 3.85-2.92 6.09-3.66 2.24-.74 4.48-1.11 6.72-1.11 2.4 0 4.43.16 6.09.48 1.66.32 3.03.7 4.11 1.14l-1.62 6.96c-.92-.44-2.01-.76-3.27-.96-1.26-.2-2.79-.3-4.59-.3-3.32 0-5.99 1.18-8.01 3.54-2.02 2.36-3.03 6.02-3.03 10.98 0 2.16.24 4.13.72 5.91.48 1.78 1.21 3.3 2.19 4.56.98 1.26 2.2 2.24 3.66 2.94 1.46.7 3.15 1.05 5.07 1.05 1.8 0 3.32-.18 4.56-.54 1.24-.36 2.32-.82 3.24-1.38l1.68 6.72zM89.18 196.469v-17.04c0-2.44-.34-4.2-1.02-5.28-.68-1.08-1.92-1.62-3.72-1.62-1.32 0-2.53.45-3.63 1.35-1.1.9-1.83 2.05-2.19 3.45v19.14h-7.8v-42h7.8v15.36h.24c.96-1.28 2.14-2.3 3.54-3.06 1.4-.76 3.18-1.14 5.34-1.14 1.52 0 2.86.2 4.02.6 1.16.4 2.13 1.06 2.91 1.98.78.92 1.36 2.17 1.74 3.75.38 1.58.57 3.53.57 5.85v18.66h-7.8zM102.08 181.469c0-5.08 1.24-8.99 3.72-11.73 2.48-2.74 5.96-4.11 10.44-4.11 2.4 0 4.48.38 6.24 1.14 1.76.76 3.22 1.83 4.38 3.21 1.16 1.38 2.03 3.05 2.61 5.01.58 1.96.87 4.12.87 6.48 0 5.08-1.23 8.99-3.69 11.73s-5.93 4.11-10.41 4.11c-2.4 0-4.48-.38-6.24-1.14-1.76-.76-3.23-1.83-4.41-3.21-1.18-1.38-2.06-3.05-2.64-5.01-.58-1.96-.87-4.12-.87-6.48zm8.04 0c0 1.32.12 2.54.36 3.66s.6 2.1 1.08 2.94c.48.84 1.11 1.49 1.89 1.95.78.46 1.71.69 2.79.69 2.04 0 3.56-.74 4.56-2.22 1-1.48 1.5-3.82 1.5-7.02 0-2.76-.46-4.99-1.38-6.69-.92-1.7-2.48-2.55-4.68-2.55-1.92 0-3.42.72-4.5 2.16-1.08 1.44-1.62 3.8-1.62 7.08zM136.46 166.469h7.8v30h-7.8v-30zm-1.14-8.46c0-1.16.43-2.15 1.29-2.97.86-.82 2.05-1.23 3.57-1.23s2.75.41 3.69 1.23c.94.82 1.41 1.81 1.41 2.97 0 1.16-.47 2.13-1.41 2.91-.94.78-2.17 1.17-3.69 1.17s-2.71-.39-3.57-1.17c-.86-.78-1.29-1.75-1.29-2.91zM173.12 194.609c-1.2.88-2.65 1.55-4.35 2.01-1.7.46-3.45.69-5.25.69-2.4 0-4.43-.38-6.09-1.14-1.66-.76-3.01-1.83-4.05-3.21s-1.79-3.05-2.25-5.01c-.46-1.96-.69-4.12-.69-6.48 0-5.08 1.14-8.99 3.42-11.73 2.28-2.74 5.6-4.11 9.96-4.11 2.2 0 3.97.18 5.31.54 1.34.36 2.55.82 3.63 1.38l-1.86 6.36c-.92-.44-1.83-.78-2.73-1.02-.9-.24-1.93-.36-3.09-.36-2.16 0-3.8.71-4.92 2.13s-1.68 3.69-1.68 6.81c0 1.28.14 2.46.42 3.54.28 1.08.7 2.02 1.26 2.82.56.8 1.29 1.43 2.19 1.89.9.46 1.95.69 3.15.69 1.32 0 2.44-.17 3.36-.51.92-.34 1.74-.75 2.46-1.23l1.8 5.94zM200.84 193.889c-1.2.96-2.83 1.77-4.89 2.43-2.06.66-4.25.99-6.57.99-4.84 0-8.38-1.41-10.62-4.23-2.24-2.82-3.36-6.69-3.36-11.61 0-5.28 1.26-9.24 3.78-11.88 2.52-2.64 6.06-3.96 10.62-3.96 1.52 0 3 .2 4.44.6 1.44.4 2.72 1.06 3.84 1.98 1.12.92 2.02 2.16 2.7 3.72.68 1.56 1.02 3.5 1.02 5.82 0 .84-.05 1.74-.15 2.7-.1.96-.25 1.96-.45 3h-18c.12 2.52.77 4.42 1.95 5.7 1.18 1.28 3.09 1.92 5.73 1.92 1.64 0 3.11-.25 4.41-.75 1.3-.5 2.29-1.01 2.97-1.53l2.58 5.1zm-11.16-22.02c-2.04 0-3.55.61-4.53 1.83-.98 1.22-1.57 2.85-1.77 4.89h11.16c.16-2.16-.17-3.82-.99-4.98-.82-1.16-2.11-1.74-3.87-1.74z"/></g><path d="M1 226.272h235.759" stroke="#767676" stroke-width="2"/><path d="M134.767 42.083h8.657V0h-8.657v42.083zm-10.706-10.536c0 .533-.057 1.066-.171 1.539-.569 1.835-2.392 3.315-4.498 3.315-1.937 0-3.417-1.125-3.417-3.433 0-3.433 3.531-4.558 8.086-4.558v3.137zm8.372-6.568c0-6.807-2.905-12.489-12.187-12.489-5.068 0-8.884 1.479-10.82 2.604l1.594 5.741c1.823-1.124 4.841-2.131 7.688-2.131 4.271 0 5.069 2.19 5.069 3.728v.357c-9.852 0-16.345 3.551-16.345 11.067 0 4.616 3.361 8.878 8.998 8.878 3.304 0 6.151-1.243 7.973-3.551h.172l.51 2.9h7.803c-.342-1.598-.455-4.262-.455-6.984v-10.12zM91.829 7.695v5.446h-3.702v6.629h3.702v11.837c0 4.083.798 6.865 2.392 8.582 1.425 1.479 3.759 2.486 6.55 2.486 2.391 0 4.499-.355 5.579-.77l-.056-6.806c-.798.177-1.367.236-2.562.236-2.564 0-3.418-1.598-3.418-5.09V19.77h6.208v-6.629h-6.208V5.269l-8.485 2.426zM82.206 9.59c2.847 0 4.612-2.013 4.612-4.499-.057-2.545-1.765-4.498-4.556-4.498-2.789 0-4.613 1.953-4.613 4.498 0 2.486 1.767 4.499 4.499 4.499h.058zm-4.329 32.493h8.656V13.141h-8.656v28.942zM66.831 29.18c0 .769-.057 1.716-.286 2.427-.568 2.071-2.334 3.61-4.612 3.61-3.588 0-5.638-3.374-5.638-7.693 0-5.268 2.505-8.228 5.695-8.228 2.391 0 4.043 1.598 4.669 3.966.115.533.172 1.123.172 1.656v4.262zm8.656-7.398c0-4.321.114-6.748.228-8.641h-7.518l-.285 3.492h-.114c-1.423-2.427-3.815-4.143-7.63-4.143-6.891 0-12.642 5.918-12.642 15.269 0 8.287 4.897 14.087 11.786 14.087 3.19 0 5.867-1.361 7.519-3.729h.112v1.835c0 5.386-3.131 7.636-7.231 7.636-3.303 0-6.321-1.125-8.087-2.19l-1.709 6.866c2.507 1.42 6.322 2.19 10.024 2.19 4.099 0 8.257-.829 11.276-3.552 3.189-2.9 4.271-7.458 4.271-13.021V21.782zM41.261 9.59c2.848 0 4.613-2.013 4.613-4.499-.057-2.545-1.765-4.498-4.555-4.498-2.791 0-4.613 1.953-4.613 4.498 0 2.486 1.765 4.499 4.498 4.499h.057zm-4.327 32.493h8.656V13.141h-8.656v28.942zM9.655 9.175c.74-.178 2.05-.355 3.929-.355 7.517 0 12.188 4.38 12.188 12.667 0 9.527-5.183 14.026-13.099 13.966-1.025 0-2.278 0-3.018-.177V9.175zM1 41.905c2.106.296 5.352.592 9.851.592 7.517 0 13.725-1.657 17.768-5.149 3.644-3.256 6.321-8.522 6.321-16.158 0-7.102-2.505-11.956-6.491-15.034-3.645-2.841-8.43-4.261-15.776-4.261-4.328 0-8.485.296-11.673.888v39.122z"/><path d="M215.802 40.603c2.102 1.181 5.338 2.066 8.973 2.066 7.952 0 11.984-3.955 11.984-9.385-.057-4.19-2.214-6.965-7.497-8.854-3.407-1.18-4.487-1.948-4.487-3.306 0-1.416 1.193-2.301 3.295-2.301 2.328 0 4.771.944 6.019 1.594l1.477-6.139c-1.704-.886-4.543-1.712-7.781-1.712-6.871 0-11.301 4.073-11.301 9.504-.058 3.363 2.159 6.61 7.95 8.617 3.182 1.062 4.033 1.831 4.033 3.306 0 1.476-1.079 2.361-3.692 2.361-2.555 0-5.85-1.121-7.44-2.126l-1.533 6.375zM199.447 7.785v5.431h-3.693v6.61h3.693v11.805c0 4.073.795 6.848 2.385 8.559 1.419 1.475 3.748 2.479 6.531 2.479 2.386 0 4.486-.354 5.566-.767l-.057-6.788c-.796.177-1.363.235-2.555.235-2.557 0-3.408-1.592-3.408-5.075V19.826h6.19v-6.61h-6.19V5.365l-8.462 2.42zm-22.263 34.294h8.633V27.5c0-.768.056-1.417.17-2.007.567-2.833 2.727-4.546 5.906-4.546.965 0 1.648.119 2.329.237v-8.44a8.22 8.22 0 0 0-1.817-.178c-2.725 0-6.077 1.771-7.497 6.021h-.228l-.34-5.371h-7.382c.17 2.478.226 5.253.226 9.502v19.361zM152.728 24.29l2.446-8.863c.595-2.418 1.252-5.579 1.787-8.06h.18c.597 2.418 1.312 5.58 1.968 8.06l2.505 8.863h-8.886zm10.258 7.066l3.101 10.723h9.781L163.344.301h-11.868L139.19 42.079h9.423l2.803-10.723h11.57zM200.425 45.517h3.722v.522h-3.139v1.396h3.02v.516h-3.02v1.907h-.583v-4.341zM204.997 45.517h2.849c.367.005.813.011 1.175.35.136.123.373.406.373.929 0 1.038-.848 1.18-1.127 1.229l1.544 1.833h-.778l-1.419-1.734h-2.023v1.734h-.594v-4.341zm.587.522v1.574h2.072c.326 0 .742-.005.98-.331a.76.76 0 0 0 .141-.462.875.875 0 0 0-.124-.462c-.19-.313-.493-.313-.766-.319h-2.303zM215.314 47.749c0 1.481-1.176 2.225-2.523 2.225-.612 0-1.228-.116-1.722-.479-.409-.295-.848-.836-.848-1.752 0-1.606 1.277-2.331 2.529-2.331 1.466.006 2.564.898 2.564 2.337zm-4.499-.043c0 .338.083.774.368 1.107.392.472 1.002.627 1.608.627 1.55 0 1.924-1.015 1.924-1.752 0-1.145-.885-1.778-2.031-1.748-.872.025-1.869.481-1.869 1.766zM216.247 45.517h.82l1.306 2.828c.207.468.242.559.402.972.143-.413.191-.524.381-.954l1.323-2.846h.808v4.341h-.558v-2.497c0-.83.012-.971.052-1.328-.117.338-.153.412-.314.763l-1.43 3.062h-.546l-1.311-2.816a9.025 9.025 0 0 1-.422-.992c.035.333.035.419.047 1.102v2.706h-.558v-4.341zM224.404 45.517h.612v4.341h-.612zM226.351 45.517h2.083c.481 0 1.044.005 1.602.48.34.288.694.823.694 1.659 0 .799-.343 1.323-.586 1.581-.587.603-1.407.621-2.113.621h-1.68v-4.341zm.599.51v3.308h1.222c.53 0 1.182-.018 1.627-.609.237-.319.326-.719.326-1.088 0-.584-.218-.977-.438-1.199-.399-.406-.866-.406-1.246-.412h-1.491zM235.823 49.267c-.077.075-.143.143-.232.216-.302.24-.884.48-1.597.48-1.448 0-2.396-1.04-2.396-2.282 0-.609.242-1.058.36-1.242.393-.59 1.164-1.028 2.137-1.028.967 0 1.58.413 1.817.622.232.202.321.375.41.528l-.588.185c-.077-.117-.136-.208-.269-.326-.355-.32-.841-.473-1.323-.473-1.032 0-1.911.602-1.911 1.697 0 .448.16.811.285 1.008.457.732 1.336.793 1.609.793.397 0 .985-.128 1.384-.571.26-.294.296-.536.331-.787h-1.846v-.516h2.345v2.293h-.516v-.597z"/></g></svg>