<svg xmlns="http://www.w3.org/2000/svg" xml:space="preserve" style="fill-rule:evenodd;clip-rule:evenodd;stroke-linejoin:round;stroke-miterlimit:2" viewBox="0 0 350 187"><path fill="none" d="M0 0h350v187H0z" style="fill:#767676;fill-opacity:0"/><path d="M35.142 221.417c0-45.763 29.375-66.809 56.541-66.809 30.088 0 52.617 23.013 52.617 67.05v3.184H52.038c.237 31.804 18.345 49.687 40.62 49.687 19.33 0 30.35-8.329 40.134-23.504l10.521 8.329c-11.259 18.1-27.155 29.363-51.63 29.363-30.112 0-56.541-23.246-56.541-67.3Zm92.758-10.034c-1.708-24.466-13.467-42.587-36.467-42.587-18.604 0-35.962 13.467-39.158 42.587H127.9Zm62.671 7.83-43.067-62.159h18.846l33.521 49.679 33.529-49.679h18.346l-43.304 62.159 46.25 66.808h-18.596l-36.95-54.079-36.717 54.079h-18.104l46.246-66.808Zm71.233-62.159h16.888v18.358c10.283-11.016 23.733-20.804 43.079-20.804 29.6 0 53.1 21.775 53.1 66.809 0 45.02-23.738 66.816-54.575 66.816-16.646 0-30.113-8.087-41.604-19.825v66.559h-16.888V157.054Zm96.179 64.604c0-35.729-17.621-52.612-39.158-52.612-15.913 0-27.904 8.317-40.133 21.296v62.641c12.729 13.454 25.208 21.055 40.133 21.055 22.75 0 39.158-15.913 39.158-52.38Zm26.934-.241c0-45.763 29.375-66.809 56.541-66.809 30.1 0 52.617 23.013 52.617 67.05v3.184h-92.263c.238 31.804 18.346 49.687 40.621 49.687 19.342 0 30.35-8.329 40.134-23.504l10.533 8.329c-11.258 18.1-27.167 29.363-51.642 29.363-30.1 0-56.541-23.246-56.541-67.3Zm92.758-10.034c-1.708-24.466-13.467-42.587-36.467-42.587-18.604 0-35.962 13.467-39.158 42.587h75.625Zm33.546-54.329h16.883v25.45h.488c10.033-15.904 25.696-27.896 51.141-27.896h2.946l-1.712 15.654s-4.654-.237-5.142-.237c-21.05 0-37.688 11.738-47.721 32.05v83.946h-16.883V157.054Zm100.596 98.867V171.5h-22.513v-14.446h22.513v-46.25h16.887v46.25h33.529V171.5h-33.529v80.996c0 13.704 4.404 21.041 20.317 21.041 4.891 0 9.783-.487 13.45-1.704v14.425c-3.904.738-10.759 1.475-16.633 1.475-24.721 0-34.021-9.541-34.021-31.812Zm103.716-85.509c8.388-7.158 17.525-12.829 37.275-14.799v33.558l-12.6 1.971c-18.262 3.212-23.687 5.933-23.687 22.221v72.545h-38.029V156.833h37.041v13.579Zm166.617 82.676c-4.458 6.679-8.9 13.099-15.562 19.25-11.105 10.379-27.892 18.279-48.621 18.279-38.28 0-65.159-24.43-65.159-66.642 0-31.104 15.292-71.079 66.146-71.079 7.646 0 29.863.721 46.4 18.504 16.796 18.012 17.767 43.192 18.254 57.746H791.55c-.238 16.05 8.879 32.091 29.371 32.091 20.733 0 27.896-13.57 32.575-22.699l28.654 14.55Zm-37.779-47.634c-.738-5.429-1.733-12.583-7.15-18.25-4.692-4.704-11.854-7.162-18.529-7.162-9.125 0-15.554 4.441-19.246 8.391-5.188 5.667-6.417 11.592-7.663 17.021h52.588Zm34.546-48.383h39.979c15.804 57.275 18.512 69.121 22.716 93.792 5.18-28.621 5.93-31.83 13.563-62.201l7.904-31.591h39.001l-41.709 128.837h-39.75l-41.704-128.837Zm130.813-.238h37.52v129.075h-37.52V156.833ZM1182 253.088c-4.44 6.679-8.89 13.099-15.54 19.25-11.11 10.379-27.9 18.279-48.64 18.279-38.24 0-65.15-24.43-65.15-66.642 0-31.104 15.3-71.079 66.16-71.079 7.63 0 29.84.721 46.39 18.504 16.78 18.012 17.77 43.192 18.26 57.746h-92.07c-.25 16.05 8.89 32.091 29.38 32.091 20.73 0 27.88-13.57 32.58-22.699l28.63 14.55Zm-37.76-47.634c-.74-5.429-1.73-12.583-7.16-18.25-4.68-4.704-11.85-7.162-18.51-7.162-9.13 0-15.54 4.441-19.25 8.391-5.2 5.667-6.42 11.592-7.65 17.021h52.57Zm74.53-48.383 18.02 90.096 19.49-90.096h40.49l17.52 90.837 20.24-90.837h39.24l-38.49 128.837h-41.23l-19.01-85.883-19.26 85.883h-41.7l-35.3-128.837h39.99Zm169.06 85.412c10.36 10.109 23.2 17.771 37.52 17.771 9.13 0 22.95-2.958 22.95-12.587 0-4.45-2.72-6.175-4.92-7.4-5.69-2.975-14.57-3.7-21.98-4.942-5.68-.992-11.6-2.217-17.28-3.946-7.89-2.233-15.8-5.433-21.47-11.104-5.66-5.683-9.62-14.575-9.62-24.192 0-21.233 18.26-43.187 54.29-43.187 30.37 0 48.63 13.067 57.51 19.246l-23.45 21.712c-12.09-9.371-23.44-12.833-32.35-12.833-14.78 0-18.25 5.933-18.25 9.633 0 7.408 8.14 8.867 20.49 11.109 25.92 4.683 56.02 11.6 56.02 42.204 0 30.345-30.6 45.162-60.95 45.162-35.8 0-54.31-17.271-62.46-24.933l23.95-21.713ZM1028.5 29.133l13.12 39.871h42.43l-34.34 24.671 13.21 40.092-34.42-24.746-34.5 24.746 13.21-40.092-34.285-24.671h42.365l13.21-39.871ZM620.817 404.304V326.55h34.475c6.929 0 12.196.7 15.804 2.096 3.608 1.391 6.492 3.862 8.646 7.396 2.154 3.537 3.233 7.446 3.233 11.721 0 5.516-1.783 10.166-5.358 13.949-3.571 3.784-9.088 6.188-16.546 7.213 2.725 1.308 4.792 2.6 6.204 3.875 3.008 2.754 5.854 6.204 8.542 10.342l13.525 21.162H676.4l-10.292-16.179c-3-4.667-5.479-8.238-7.425-10.712-1.941-2.476-3.683-4.209-5.225-5.196-1.533-.992-3.1-1.68-4.691-2.071-1.167-.246-3.075-.371-5.73-.371h-11.933v34.529h-10.287Zm10.287-43.441h22.117c4.704 0 8.383-.484 11.033-1.455 2.65-.975 4.667-2.533 6.046-4.666 1.379-2.142 2.071-4.467 2.071-6.979 0-3.676-1.338-6.701-4.004-9.067-2.671-2.371-6.892-3.554-12.65-3.554h-24.613v25.721Zm68.209 43.441V326.55h56.22v9.175H709.6v23.812h43.012v9.126H709.6v26.466h47.738v9.175h-58.025Zm127.716-27.262 10.288 2.6c-2.159 8.45-6.038 14.896-11.642 19.333-5.604 4.433-12.458 6.654-20.554 6.654-8.379 0-15.196-1.708-20.442-5.121-5.254-3.408-9.246-8.35-11.987-14.82-2.742-6.471-4.113-13.421-4.113-20.846 0-8.096 1.55-15.159 4.642-21.188 3.092-6.029 7.496-10.608 13.204-13.733 5.713-3.133 11.996-4.696 18.858-4.696 7.775 0 14.321 1.979 19.625 5.938 5.3 3.958 8.996 9.529 11.084 16.708l-10.129 2.387c-1.805-5.658-4.421-9.779-7.851-12.358-3.429-2.579-7.745-3.875-12.941-3.875-5.975 0-10.971 1.433-14.983 4.3-4.013 2.863-6.838 6.708-8.463 11.538a46.428 46.428 0 0 0-2.437 14.924c0 6.613.962 12.388 2.887 17.321 1.929 4.929 4.925 8.617 8.992 11.055 4.066 2.441 8.466 3.662 13.208 3.662 5.762 0 10.642-1.662 14.638-4.988 3.995-3.32 6.7-8.254 8.116-14.795Zm19.833-10.609c0-12.908 3.467-23.008 10.396-30.312 6.929-7.3 15.879-10.95 26.838-10.95 7.179 0 13.65 1.716 19.412 5.141 5.763 3.434 10.155 8.213 13.18 14.35 3.02 6.134 4.533 13.092 4.533 20.871 0 7.884-1.592 14.938-4.771 21.163-3.183 6.221-7.692 10.933-13.525 14.133-5.833 3.2-12.125 4.8-18.883 4.8-7.317 0-13.859-1.771-19.625-5.304-5.759-3.533-10.129-8.362-13.1-14.479-2.967-6.117-4.455-12.588-4.455-19.413Zm10.609.159c0 9.37 2.517 16.75 7.558 22.141 5.038 5.396 11.358 8.092 18.963 8.092 7.741 0 14.116-2.725 19.12-8.171 5.001-5.441 7.505-13.171 7.505-23.175 0-6.329-1.071-11.854-3.213-16.575-2.137-4.721-5.266-8.379-9.383-10.979-4.121-2.596-8.746-3.9-13.871-3.9-7.287 0-13.554 2.504-18.8 7.504-5.254 5.004-7.879 13.363-7.879 25.063Zm76.696 37.712V326.55h15.487l18.4 55.05c1.7 5.129 2.938 8.967 3.713 11.513.883-2.834 2.262-6.984 4.137-12.467l18.617-54.096h13.839v77.754h-9.914v-65.079l-22.592 65.079h-9.283l-22.488-66.192v66.192h-9.916Zm90.483 0V326.55h15.48l18.41 55.05c1.7 5.129 2.93 8.967 3.71 11.513.89-2.834 2.26-6.984 4.14-12.467L1085 326.55h13.85v77.754h-9.93v-65.079l-22.59 65.079h-9.28l-22.49-66.192v66.192h-9.91Zm91.01 0V326.55h56.22v9.175h-45.93v23.812h43.01v9.126h-43.01v26.466h47.73v9.175h-58.02Zm72.13 0V326.55h10.56l40.84 61.046V326.55h9.86v77.754h-10.55l-40.84-61.1v61.1h-9.87Zm78.55 0V326.55h26.78c6.05 0 10.67.371 13.85 1.112 4.45 1.026 8.26 2.884 11.4 5.571 4.11 3.467 7.17 7.892 9.21 13.284 2.03 5.391 3.04 11.558 3.04 18.487 0 5.904-.69 11.133-2.07 15.696-1.38 4.562-3.14 8.337-5.3 11.321-2.15 2.991-4.51 5.342-7.08 7.058-2.56 1.713-5.66 3.013-9.28 3.896-3.62.883-7.79 1.329-12.49 1.329h-28.06Zm10.29-9.175h16.6c5.13 0 9.15-.479 12.07-1.433 2.91-.954 5.24-2.3 6.98-4.029 2.43-2.442 4.33-5.721 5.7-9.842 1.36-4.121 2.03-9.113 2.03-14.983 0-8.134-1.33-14.384-4-18.75-2.67-4.363-5.91-7.292-9.73-8.775-2.76-1.063-7.2-1.592-13.31-1.592h-16.34v59.404Zm68.37 9.175V326.55h56.22v9.175h-45.94v23.812h43.02v9.126h-43.02v26.466h47.74v9.175H1345Zm72.23 0V326.55h26.79c6.05 0 10.66.371 13.84 1.112 4.46 1.026 8.26 2.884 11.41 5.571 4.1 3.467 7.16 7.892 9.2 13.284 2.03 5.391 3.05 11.558 3.05 18.487 0 5.904-.69 11.133-2.07 15.696-1.38 4.562-3.15 8.337-5.31 11.321-2.15 2.991-4.52 5.342-7.07 7.058-2.57 1.713-5.67 3.013-9.29 3.896-3.62.883-7.78 1.329-12.49 1.329h-28.06Zm10.3-9.175h16.59c5.13 0 9.16-.479 12.07-1.433 2.92-.954 5.25-2.3 6.98-4.029 2.43-2.442 4.34-5.721 5.7-9.842 1.36-4.121 2.04-9.113 2.04-14.983 0-8.134-1.33-14.384-4.01-18.75-2.66-4.363-5.91-7.292-9.73-8.775-2.76-1.063-7.19-1.592-13.31-1.592h-16.33v59.404Z" style="fill:#767676" transform="matrix(.24102 0 0 .24102 -8.47 27.626)"/></svg>