<svg viewBox="0 0 238 201" xmlns="http://www.w3.org/2000/svg" fill-rule="evenodd" clip-rule="evenodd" stroke-linejoin="round" stroke-miterlimit="3"><path d="M167.45 54.729v9.214h-14.366v7.395h13.457v8.85h-13.457v8.607h14.912v9.214H141.81v-43.28h25.64zm-75.345 0v9.214H77.739v7.395h13.457v8.85H77.739v8.607h14.912v9.214H66.465v-43.28h25.64zm-62.979 0v9.577h-8.487v33.703H9.365V64.306H1v-9.577h28.126zm13.82 15.881h6.91V54.729h11.275v43.28H49.856V80.188h-6.91v17.821H31.671v-43.28h11.275V70.61zm180.513-15.881c2.142 0 3.971.283 5.486.849 1.515.565 2.748 1.364 3.697 2.394.95 1.031 1.637 2.253 2.061 3.667.425 1.415.637 2.95.637 4.607 0 2.91-.586 5.253-1.758 7.031-1.172 1.779-3.051 2.87-5.637 3.274v.121c2.707.242 4.566 1.192 5.576 2.849 1.011 1.657 1.516 3.94 1.516 6.849v5.456c0 .606.02 1.182.06 1.727.041.546.101 1.041.182 1.485.081.445.182.788.303 1.031.162.242.324.475.485.697.162.222.425.434.788.636v.607h-12.002c-.283-.566-.495-1.233-.636-2.001a22.102 22.102 0 0 1-.303-2.303 43.461 43.461 0 0 1-.121-2.213 60.305 60.305 0 0 1-.031-1.727v-2.91c0-1.212-.06-2.222-.182-3.03-.121-.809-.333-1.445-.636-1.91-.303-.465-.687-.788-1.152-.97-.464-.181-1.04-.272-1.727-.272h-2.97v17.336H205.82v-43.28h17.639zM123.322 69.822h.121l4.244-15.093h12.365L129.02 80.976v17.033h-11.274V80.976l-10.851-26.247h12.184l4.243 15.093zm80.619 28.187h-12.002l-1.152-7.577h-8.971l-1.151 7.577h-11.82l10.365-43.28h14.184l10.547 43.28zm-17.579-34.43h-.121l-3.091 18.367h6.304l-3.092-18.367zm32.975 9.456c1.617 0 2.809-.475 3.577-1.424.767-.95 1.151-2.193 1.151-3.728 0-1.819-.373-3.112-1.121-3.88-.748-.767-1.97-1.151-3.667-1.151h-2.182v10.183h2.242zM146.72 22.488c0 4.041.263 7.486.788 10.335.525 2.849 1.394 5.173 2.606 6.971 1.213 1.798 2.809 3.081 4.789 3.849 1.98.768 4.405 1.152 7.274 1.152 2.869 0 5.294-.384 7.274-1.152 1.98-.768 3.576-2.051 4.788-3.849 1.213-1.798 2.081-4.122 2.607-6.971.525-2.849.788-6.294.788-10.335 0-4.041-.263-7.486-.788-10.335-.526-2.849-1.394-5.172-2.607-6.97-1.212-1.799-2.808-3.112-4.788-3.94C167.471.414 165.046 0 162.177 0c-2.869 0-5.294.414-7.274 1.243-1.98.828-3.576 2.141-4.789 3.94-1.212 1.798-2.081 4.121-2.606 6.97-.525 2.849-.788 6.294-.788 10.335zm-81.467 21.64H53.251l-1.152-7.577h-8.971l-1.152 7.577h-11.82L40.521.849h14.184l10.548 43.279zM207.335.849v9.213H192.97v7.395h13.456v8.85H192.97v17.821h-11.275V.849h25.64zm-123.716 0c2.142 0 4.001.343 5.577 1.03 1.576.687 2.879 1.627 3.909 2.819 1.031 1.192 1.789 2.596 2.273 4.212.485 1.617.728 3.375.728 5.274 0 4.486-1.202 7.85-3.607 10.093-2.404 2.242-5.93 3.364-10.577 3.364h-3.94v16.487H66.707V.849h16.912zm32.551 0c2.141 0 4 .343 5.576 1.03 1.576.687 2.879 1.627 3.91 2.819 1.03 1.192 1.788 2.596 2.273 4.212.485 1.617.727 3.375.727 5.274 0 4.486-1.202 7.85-3.606 10.093-2.405 2.242-5.93 3.364-10.578 3.364h-3.94v16.487H99.258V.849h16.912zm42.188 21.639c0-2.909.04-5.324.121-7.243.081-1.92.253-3.445.516-4.577.262-1.131.646-1.919 1.151-2.364.505-.444 1.182-.666 2.031-.666.848 0 1.525.222 2.03.666.506.445.889 1.233 1.152 2.364.263 1.132.435 2.657.515 4.577.081 1.919.122 4.334.122 7.243 0 2.91-.041 5.324-.122 7.244-.08 1.919-.252 3.445-.515 4.576-.263 1.132-.646 1.92-1.152 2.364-.505.445-1.182.667-2.03.667-.849 0-1.526-.222-2.031-.667-.505-.444-.889-1.232-1.151-2.364-.263-1.131-.435-2.657-.516-4.576-.081-1.92-.121-4.334-.121-7.244zM47.674 9.698h-.121l-3.092 18.367h6.304L47.674 9.698zm32.429 9.82c1.415 0 2.496-.424 3.243-1.273.748-.848 1.122-2.182 1.122-4 0-3.516-1.455-5.274-4.365-5.274h-2.121v10.547h2.121zm32.551 0c1.414 0 2.495-.424 3.243-1.273.747-.848 1.121-2.182 1.121-4 0-3.516-1.455-5.274-4.364-5.274h-2.122v10.547h2.122z" fill="#767676"/><g fill="none" stroke="#767676" stroke-width="2"><path d="M183.86 118.694v80.72M194.019 118.694v80.72M215.437 118.694v80.72M236.855 118.694v80.72"/></g><g fill="none" stroke="#767676" stroke-width="2"><path d="M53.995 118.694v80.72M43.836 118.694v80.72M22.418 118.694v80.72M1 118.694v80.72"/></g><path d="M139.547 152.459c-2.769 0-5.363-1.627-5.363-10.2 0-10.42 2.594-11.959 5.583-11.959 1.979 0 4.045.968 3.913 6.375l15.74-1.099c-.132-10.288-6.507-16.882-19.521-16.882-13.453 0-22.158 7.034-22.158 23.873 0 14.728 7.737 21.763 21.191 21.763 11.958 0 18.861-5.848 19.784-15.564l-15.124-1.011c-.352 3.385-1.671 4.704-4.045 4.704m4.397 18.509c-9.365 0-14.86 5.32-14.86 14.465 0 8.661 4.66 13.981 14.508 13.981 9.673 0 14.641-5.408 14.641-14.377 0-8.837-4.749-14.069-14.289-14.069zm-.264 21.236c-2.462 0-4.133-1.583-4.133-6.991 0-5.891 2.067-6.859 4.133-6.859 2.374 0 4.089 1.232 4.089 6.639.044 6.067-1.803 7.211-4.089 7.211zm-42.866-72.719H78.436v44.097h15.519v-13.145h4.133c16.883 0 18.509-10.64 18.509-16.268 0-8.749-4.748-14.684-15.783-14.684zm-5.452 19.96h-1.363v-8.133h2.946c3.737 0 4.001 2.33 4.001 4 0 4.133-2.902 4.133-5.584 4.133zm-7.078 59.529v-7.914h2.594c10.683 0 11.694-6.726 11.694-10.287 0-5.496-2.989-9.277-9.98-9.277H78.436v27.478h9.848zm0-20.004h1.846c2.374 0 2.506 1.495 2.506 2.506 0 2.594-1.802 2.594-3.517 2.594h-.835v-5.1zm25.5 20.004v-7.914h1.407l3.209 7.914h10.288l-4.397-9.892c3.342-2.242 3.781-5.979 3.781-8.309 0-5.496-2.989-9.277-9.98-9.277h-14.113v27.478h9.805zm0-20.004h1.846c2.374 0 2.506 1.495 2.506 2.506 0 2.594-1.802 2.594-3.517 2.594h-.835v-5.1z" fill="#767676" fill-rule="nonzero"/></svg>