<svg viewBox="0 0 277 248" xmlns="http://www.w3.org/2000/svg" fill-rule="evenodd" clip-rule="evenodd" stroke-linecap="round" stroke-linejoin="round" stroke-miterlimit="1.5"><g fill="#767676"><text x="870.868" y="3048.8" font-family="'HelveticaNeue-Medium','Helvetica Neue',sans-serif" font-weight="500" font-size="45.793" transform="translate(-395.648 -1330.49) scale(.50226)">BEST SOFTW<tspan x="1162.38px 1192.93px" y="3048.8px 3048.8px">AR</tspan>E</text><text x="785.815" y="3128.44" font-family="'Rockwell-Bold','Rockwell',serif" font-weight="700" font-size="57.739" transform="translate(-395.648 -1330.49) scale(.50226)">Ph<tspan x="865.262px 899.516px 921.281px" y="3128.44px 3128.44px 3128.44px">oto</tspan>gr<tspan x="1022.86px 1057.73px 1095.14px 1130.58px" y="3128.44px 3128.44px 3128.44px 3128.44px">aphy</tspan> n<tspan x="1222.91px 1256.15px" y="3128.44px 3128.44px">ew</tspan>s</text></g><path d="M118.911 64.637l-14.775-8.53 7.08-9.831 20.582 11.883v61.822l-12.887-7.44V64.637z" fill="#767676" fill-rule="nonzero"/><text x="133.413" y="73.67" font-family="'Futura-Medium','Futura',sans-serif" font-weight="500" font-size="16.469" fill="#767676" transform="matrix(.86603 .5 0 1.1547 17.874 -78.103)">S</text><text x="144.001" y="79.783" font-family="'Futura-Medium','Futura',sans-serif" font-weight="500" font-size="16.469" fill="#767676" transform="matrix(.86603 .5 0 1.1547 19.292 -84.343)">T</text><path d="M183.703 42.858l-18.932 10.931v103.156l18.932-10.931V42.858zM164.77 53.788L92.519 12.073V115.23l72.251 41.714V53.788z" fill="none" stroke="#767676" stroke-width="2.29"/><path d="M111.452 1.144l-18.933 10.93 72.252 41.715 18.933-10.931-72.252-41.714z" fill="none" stroke="#767676" stroke-width="2.29"/></svg>