<svg xmlns="http://www.w3.org/2000/svg" xml:space="preserve" style="fill-rule:evenodd;clip-rule:evenodd;stroke-linejoin:round;stroke-miterlimit:2" viewBox="0 0 227 187"><g transform="scale(.64857 1)"><path d="M0 0h350v187H0z" style="fill:none"/><clipPath id="a"><path d="M0 0h350v187H0z"/></clipPath><g clip-path="url(#a)"><path fill="none" d="M0 0h350v187H0z" style="fill:#767676;fill-opacity:0"/><path d="M354.799 159.415c-38.792 0-75.036 15.264-102.055 42.98-26.01 26.681-40.007 62.542-39.415 100.976.591 38.315 15.542 74.041 42.096 100.595l96.838 96.838a3.574 3.574 0 0 0 2.536 1.049c.554 0 1.622-.137 2.536-1.049l96.836-96.838c26.554-26.554 41.504-62.279 42.096-100.592.594-38.433-13.402-74.293-39.409-100.974-27.02-27.72-63.265-42.985-102.059-42.985Zm0 357.753a18.776 18.776 0 0 1-13.364-5.534l-96.839-96.838c-29.384-29.385-45.927-68.873-46.58-111.19-.656-42.539 14.886-82.28 43.762-111.901 29.926-30.699 70.065-47.605 113.021-47.605 42.959 0 83.099 16.908 113.025 47.609 28.874 29.623 44.413 69.364 43.756 111.902-.654 42.314-17.196 81.8-46.579 111.185l-96.838 96.838a18.782 18.782 0 0 1-13.364 5.534Z" style="fill:#767676;fill-rule:nonzero" transform="matrix(.77285 0 0 .50125 -99.206 -72.23)"/><path d="M332.662 300.238c-2.738 1.953-8.059 3.281-12.592 3.281-10.004 0-14.459-5.157-14.459-14.219v-12.267h-3.852v-11.624h3.852V253.48l19.185-.027.042 11.956h7.824v11.624h-7.824v7.736c0 3.984.782 5.312 3.365 5.312 1.329 0 3.285-.546 4.459-1.171v11.328Z" style="fill:#767676;fill-rule:nonzero" transform="matrix(.77285 0 0 .50125 -99.206 -72.23)"/><path d="M330.909 265.409h23.688v19.299c0 4.072 1.181 5.951 4.331 5.951 2.126 0 4.175-.627 5.907-1.723v-11.902h-5.04v-11.625h24.267v25.407h4.46v11.624h-23.687v-4.656c-4.726 3.366-10.552 5.404-15.632 5.404-7.502 0-13.834-4.7-13.834-15.896v-10.258h-4.46v-11.625Z" style="fill:#767676;fill-rule:nonzero" transform="matrix(.77285 0 0 .50125 -99.206 -72.23)"/><path d="M388.191 290.816h4.694v-13.782h-4.694v-11.625h4.694c-.312-13.28 8.442-17.02 22.435-17.02 1.801 0 5.791.156 8.139.078v10.284c-1.018-.078-2.975-.234-4.617-.234-5.711 0-6.807 1.704-6.728 6.892h7.041v11.625h-7.041v13.782h6.259v11.624h-30.182v-11.624Z" style="fill:#767676;fill-rule:nonzero" transform="matrix(.77285 0 0 .50125 -99.206 -72.23)"/><path d="M417.784 290.816h4.695v-13.782h-4.695v-11.625h4.695c-.313-13.28 8.442-17.02 22.435-17.02 1.8 0 5.79.156 8.137.078v10.284c-1.017-.078-2.973-.234-4.615-.234-5.712 0-6.808 1.704-6.73 6.892h7.042v11.625h-7.042v13.782h6.26v11.624h-30.182v-11.624ZM258.131 302.292v-17.874h13.087c1.999 4.158 6.016 6.36 10.573 6.36 1.747 0 4.763-.856 4.763-3.06 0-5.991-28.332-1.018-28.332-21.496 0-11.426 8.021-18.679 19.292-18.679 4.328 0 7.586 1.166 11.218 3.462v-2.899h12.349v18.116h-12.752c-.674-3.633-2.439-6.36-6.941-6.36-1.806 0-4.842.527-4.842 2.899 0 1.654 2.196 3.158 4.437 3.883l8.959 3.232c8.26 2.672 14.289 6.127 14.289 15.86 0 11.225-9.345 17.119-20.019 17.119-4.972 0-8.786-1.369-13.155-3.624v3.061h-12.926ZM271.864 328.465v-3.976h-4.579a.854.854 0 0 1-.85-.849c0-.466.384-.851.85-.851h5.539c.438 0 .85.385.85.851v4.798c0 .328-.11.603-.357.904-1.316 1.536-3.235 3.016-6.553 3.016-5.318 0-8.555-2.851-8.555-9.595 0-6.499 3.237-9.625 8.555-9.625 2.605 0 4.881 1.124 6.17 2.907a.972.972 0 0 1 .192.576.866.866 0 0 1-.878.877c-.247 0-.494-.082-.713-.357-.932-1.289-2.687-2.303-4.771-2.303-4.222 0-6.634 2.55-6.634 7.925 0 5.702 2.412 7.896 6.634 7.896 2.55 0 4.195-1.07 5.1-2.194ZM282.647 316.428l-3.235 8.391h6.497l-3.262-8.391Zm-3.812 10.091-2.001 5.017c-.137.356-.439.657-.905.657a.941.941 0 0 1-.932-.932c0-.108.028-.301.082-.411l6.691-16.917c.136-.328.383-.63.877-.63.466 0 .767.302.904.63l6.69 16.917c.055.138.082.329.082.411a.93.93 0 0 1-.959.932c-.466 0-.768-.273-.905-.63l-1.974-5.044h-7.65ZM294.196 330.275h2.934c4.085 0 6.581-1.81 6.581-7.512 0-5.648-2.496-7.541-6.581-7.541h-2.934v15.053Zm2.934-16.752c5.237 0 8.472 2.468 8.472 9.24s-3.235 9.211-8.472 9.211h-3.865a.925.925 0 0 1-.933-.932v-16.587c0-.522.412-.932.933-.932h3.865ZM321.154 328.465v-3.976h-4.579a.853.853 0 0 1-.849-.849c0-.466.384-.851.849-.851h5.539c.438 0 .85.385.85.851v4.798c0 .328-.11.603-.357.904-1.316 1.536-3.235 3.016-6.553 3.016-5.318 0-8.554-2.851-8.554-9.595 0-6.499 3.236-9.625 8.554-9.625 2.605 0 4.881 1.124 6.17 2.907a.965.965 0 0 1 .192.576.866.866 0 0 1-.878.877c-.247 0-.493-.082-.712-.357-.933-1.289-2.688-2.303-4.772-2.303-4.222 0-6.634 2.55-6.634 7.925 0 5.702 2.412 7.896 6.634 7.896 2.55 0 4.195-1.07 5.1-2.194ZM326.372 331.974a.925.925 0 0 1-.933-.932v-16.587c0-.522.412-.932.933-.932h8.8c.466 0 .851.384.851.849 0 .466-.385.85-.851.85h-7.869v6.607h6.032c.466 0 .851.385.851.851 0 .466-.385.85-.851.85h-6.032v6.745h8.171c.466 0 .85.384.85.85a.854.854 0 0 1-.85.849h-9.102ZM338.989 315.278a.867.867 0 0 1-.877-.878c0-.493.384-.877.877-.877h11.652c.494 0 .878.384.878.877a.867.867 0 0 1-.878.878h-4.88v15.983a.923.923 0 0 1-.932.932.924.924 0 0 1-.933-.932v-15.983h-4.907ZM365.949 316.428l-3.235 8.391h6.498l-3.263-8.391Zm-3.811 10.091-2.002 5.017c-.136.356-.438.657-.904.657a.942.942 0 0 1-.933-.932c0-.108.028-.301.082-.411l6.691-16.917c.137-.328.384-.63.877-.63.466 0 .768.302.905.63l6.69 16.917c.055.138.082.329.082.411a.93.93 0 0 1-.96.932c-.466 0-.768-.273-.904-.63l-1.975-5.044h-7.649ZM383.558 317.525l-3.948 13.955a.91.91 0 0 1-.905.713.937.937 0 0 1-.905-.685l-4.853-16.943c-.027-.11-.055-.22-.055-.329 0-.522.412-.933.933-.933.521 0 .822.385.904.686l4.004 14.174 3.92-14.174c.11-.44.494-.686.905-.686.412 0 .795.246.905.686l3.921 14.174 4.002-14.174a.937.937 0 0 1 .905-.686c.521 0 .932.411.932.933 0 .109-.027.219-.054.329l-4.854 16.943a.935.935 0 0 1-.904.685.909.909 0 0 1-.905-.713l-3.948-13.955ZM401.142 316.428l-3.235 8.391h6.497l-3.262-8.391Zm-3.812 10.091-2.001 5.017c-.137.356-.439.657-.905.657a.941.941 0 0 1-.932-.932c0-.108.028-.301.082-.411l6.69-16.917c.137-.328.384-.63.878-.63.466 0 .767.302.904.63l6.69 16.917c.055.138.082.329.082.411a.93.93 0 0 1-.959.932c-.466 0-.768-.273-.905-.63l-1.974-5.044h-7.65ZM413.102 322.297h4.579c1.919 0 3.29-1.564 3.29-3.538 0-2.029-1.398-3.537-3.373-3.537h-4.496v7.075Zm0 8.964a.923.923 0 0 1-.932.932.923.923 0 0 1-.932-.932v-16.806c0-.522.411-.932.932-.932h5.456c3.044 0 5.237 2.303 5.237 5.236 0 2.825-1.947 5.1-4.908 5.237l5.018 6.689a.92.92 0 0 1 .192.576.924.924 0 0 1-.933.932.926.926 0 0 1-.795-.438l-5.565-7.759h-2.77v7.265ZM427.42 330.275h2.934c4.085 0 6.581-1.81 6.581-7.512 0-5.648-2.496-7.541-6.581-7.541h-2.934v15.053Zm2.934-16.752c5.237 0 8.472 2.468 8.472 9.24s-3.235 9.211-8.472 9.211h-3.866a.924.924 0 0 1-.932-.932v-16.587c0-.522.411-.932.932-.932h3.866ZM446.674 314.838c-2.879 0-3.975 1.426-3.975 2.99 0 4.551 10.364 2.604 10.364 9.211 0 3.427-2.358 5.319-6.581 5.319-3.126 0-5.456-1.59-6.388-3.372-.11-.22-.138-.329-.138-.493 0-.494.385-.878.878-.878.329 0 .603.165.768.438.877 1.427 2.467 2.606 4.88 2.606 3.016 0 4.716-1.207 4.716-3.62 0-5.127-10.364-2.714-10.364-9.211 0-2.524 1.837-4.69 5.84-4.69 2.604 0 4.716 1.098 5.868 2.825a.905.905 0 0 1 .164.52.866.866 0 0 1-.877.877c-.247 0-.494-.082-.714-.355-.822-1.014-2.138-2.167-4.441-2.167ZM272.036 350.915l-3.963 14.126c-.241.861-.998 1.481-1.929 1.481a1.975 1.975 0 0 1-1.895-1.378l-5.892-19.741a1.805 1.805 0 0 1-.103-.62 2 2 0 0 1 1.998-1.998c1.103 0 1.723.791 1.895 1.378l4.031 14.47 3.928-14.401c.241-.897 1.069-1.447 1.93-1.447s1.688.55 1.929 1.447l3.927 14.401 4.032-14.47a1.957 1.957 0 0 1 1.895-1.378 2 2 0 0 1 1.998 1.998c0 .241-.035.412-.103.62l-5.892 19.741a1.974 1.974 0 0 1-1.895 1.378c-.93 0-1.688-.62-1.93-1.481l-3.961-14.126ZM292.367 364.524a2 2 0 0 1-3.996 0v-19.741a1.999 1.999 0 0 1 3.996 0v19.741ZM313.177 344.749v19.809a1.984 1.984 0 0 1-1.964 1.964 1.973 1.973 0 0 1-1.619-.861l-10.163-14.676v13.573a1.985 1.985 0 0 1-1.964 1.964 1.985 1.985 0 0 1-1.964-1.964v-19.809c0-1.069.896-1.964 1.964-1.964.689 0 1.24.309 1.585.826l10.198 14.781v-13.643c0-1.069.896-1.964 1.963-1.964 1.069 0 1.964.895 1.964 1.964ZM333.99 344.749v19.809a1.985 1.985 0 0 1-1.964 1.964 1.972 1.972 0 0 1-1.619-.861l-10.164-14.676v13.573a1.985 1.985 0 0 1-1.964 1.964 1.985 1.985 0 0 1-1.964-1.964v-19.809c0-1.069.896-1.964 1.964-1.964.689 0 1.24.309 1.585.826l10.198 14.781v-13.643c0-1.069.896-1.964 1.964-1.964s1.964.895 1.964 1.964ZM340.917 352.811h6.511c.965 0 1.758.792 1.758 1.757 0 .964-.793 1.756-1.758 1.756h-6.511v6.34h9.13c.999 0 1.791.792 1.791 1.792 0 .999-.792 1.791-1.791 1.791h-11.129a2 2 0 0 1-1.998-1.998v-19.191a2 2 0 0 1 1.998-1.998h10.75c.999 0 1.791.792 1.791 1.792 0 .999-.792 1.791-1.791 1.791h-8.751v6.168ZM358.077 346.643v7.201h4.651c2.136 0 3.066-1.757 3.066-3.583 0-1.86-.93-3.618-3.17-3.618h-4.547Zm0 10.716v7.165a2 2 0 0 1-3.997 0v-19.466a2 2 0 0 1 1.998-1.998h6.581c4.651 0 7.27 3.308 7.27 7.201 0 3.272-1.999 6.442-5.306 6.856l5.099 6.201c.31.414.413.827.413 1.206a2 2 0 0 1-1.998 1.998c-.585 0-1.206-.275-1.55-.722l-6.271-8.441h-2.239ZM385.527 342.641c4.969 0 7.917 2.81 7.917 7.025 0 7.232-11.892 10.008-11.892 13.024h10.521c.96 0 1.748.788 1.748 1.748 0 .959-.788 1.748-1.748 1.748h-13.092c-.96 0-1.748-.789-1.748-1.748 0-7.574 12.304-8.362 12.304-14.772 0-1.919-1.405-3.598-4.01-3.598-2.125 0-3.29 1.165-3.907 2.468-.377.719-.994 1.097-1.713 1.097a1.844 1.844 0 0 1-1.851-1.852c0-.273.034-.479.171-.788 1.097-2.502 3.53-4.352 7.3-4.352ZM410.374 354.636c0-5.964-1.509-8.568-5.039-8.568s-5.072 2.604-5.072 8.568c0 6.032 1.542 8.568 5.072 8.568 3.53 0 5.039-2.536 5.039-8.568Zm3.907 0c0 8.226-2.845 12.03-8.946 12.03-6.169 0-8.979-3.804-8.979-12.03 0-8.191 2.81-11.995 8.979-11.995 6.101 0 8.946 3.804 8.946 11.995ZM424.732 342.641c4.97 0 7.917 2.81 7.917 7.025 0 7.232-11.892 10.008-11.892 13.024h10.521c.96 0 1.748.788 1.748 1.748 0 .959-.788 1.748-1.748 1.748h-13.092a1.755 1.755 0 0 1-1.747-1.748c0-7.574 12.303-8.362 12.303-14.772 0-1.919-1.405-3.598-4.01-3.598-2.125 0-3.29 1.165-3.906 2.468-.378.719-.995 1.097-1.714 1.097a1.845 1.845 0 0 1-1.851-1.852c0-.273.034-.479.172-.788 1.096-2.502 3.529-4.352 7.299-4.352ZM444.472 342.641c4.969 0 7.917 2.81 7.917 7.025 0 7.232-11.892 10.008-11.892 13.024h10.521c.96 0 1.748.788 1.748 1.748 0 .959-.788 1.748-1.748 1.748h-13.092c-.96 0-1.748-.789-1.748-1.748 0-7.574 12.304-8.362 12.304-14.772 0-1.919-1.405-3.598-4.01-3.598-2.125 0-3.29 1.165-3.907 2.468-.377.719-.994 1.097-1.713 1.097a1.845 1.845 0 0 1-1.851-1.852c0-.273.034-.479.171-.788 1.097-2.502 3.53-4.352 7.3-4.352Z" style="fill:#767676;fill-rule:nonzero" transform="matrix(.77285 0 0 .50125 -99.206 -72.23)"/></g></g></svg>