<svg viewBox="0 0 262 298" xmlns="http://www.w3.org/2000/svg" fill-rule="evenodd" clip-rule="evenodd" stroke-linejoin="round" stroke-miterlimit="2"><path d="M3.162 295.374h254.883v-2H3.162v2zm0-291.212h254.883v-2H3.162v2zM72.314 157.221a.302.302 0 01.559 0l3.396 8.282 8.926.671a.3.3 0 01.172.531l-6.826 5.79 2.12 8.697a.3.3 0 01-.453.328l-7.616-4.703-7.615 4.703a.302.302 0 01-.453-.328l2.12-8.697-6.826-5.79a.3.3 0 01-.091-.323.3.3 0 01.264-.208l8.925-.67 3.398-8.283zM101.517 157.221a.302.302 0 01.56 0l3.396 8.282 8.926.671a.3.3 0 01.172.531l-6.826 5.79 2.12 8.697a.3.3 0 01-.453.328l-7.616-4.703-7.615 4.703a.302.302 0 01-.453-.328l2.12-8.697-6.826-5.79a.3.3 0 01-.092-.323.3.3 0 01.264-.208l8.926-.67 3.397-8.283zM130.72 157.221a.302.302 0 01.56 0l3.397 8.282 8.926.671a.3.3 0 01.172.531l-6.826 5.79 2.119 8.697a.3.3 0 01-.452.328L131 176.817l-7.615 4.703a.302.302 0 01-.453-.328l2.12-8.697-6.826-5.79a.3.3 0 01-.092-.323.3.3 0 01.264-.208l8.926-.67 3.397-8.283zM159.924 157.221a.302.302 0 01.559 0l3.397 8.282 8.926.671a.3.3 0 01.172.531l-6.826 5.79 2.119 8.697a.3.3 0 01-.452.328l-7.616-4.703-7.615 4.703a.302.302 0 01-.453-.328l2.12-8.697-6.826-5.79a.3.3 0 01-.092-.323.3.3 0 01.264-.208l8.926-.67 3.397-8.283zM189.128 157.221a.302.302 0 01.559 0l3.397 8.282 8.926.671a.3.3 0 01.172.531l-6.826 5.79 2.119 8.697a.3.3 0 01-.452.328l-7.616-4.703-7.615 4.703a.302.302 0 01-.453-.328l2.12-8.697-6.826-5.79a.3.3 0 01-.092-.323.3.3 0 01.264-.208l8.926-.67 3.397-8.283z" fill="#767676"/><path d="M87.184 38.138l5.664 37.968H82.72l-.48-6.816h-3.552l-.576 6.816H67.888l5.04-37.968h14.256zM81.952 62.57a451.6 451.6 0 01-1.488-15.936c-1.008 7.248-1.632 12.576-1.872 15.936h3.36zM94.519 38.138h9.936c2.688 0 4.752.24 6.192.672 1.44.384 2.544 1.008 3.264 1.824.72.768 1.2 1.728 1.488 2.88.24 1.152.384 2.88.384 5.28v3.312c0 2.4-.24 4.176-.768 5.28-.48 1.104-1.392 1.968-2.736 2.544-1.344.576-3.072.912-5.232.912h-2.64v15.264h-9.888V38.138zm9.888 6.528v9.648h.72c.912 0 1.536-.192 1.872-.672.336-.432.528-1.344.528-2.736v-3.12c0-1.296-.192-2.16-.624-2.544-.384-.384-1.248-.576-2.496-.576zM118.613 38.138h9.936c2.688 0 4.752.24 6.192.672 1.44.384 2.544 1.008 3.264 1.824.72.768 1.2 1.728 1.488 2.88.24 1.152.384 2.88.384 5.28v3.312c0 2.4-.24 4.176-.768 5.28-.48 1.104-1.392 1.968-2.736 2.544-1.344.576-3.072.912-5.232.912h-2.64v15.264h-9.888V38.138zm9.888 6.528v9.648h.72c.912 0 1.536-.192 1.872-.672.336-.432.528-1.344.528-2.736v-3.12c0-1.296-.192-2.16-.624-2.544-.384-.384-1.248-.576-2.496-.576zM173.727 60.362c0 3.84-.096 6.528-.288 8.112-.192 1.584-.72 3.024-1.68 4.368-.96 1.296-2.208 2.304-3.84 3.024-1.584.672-3.456 1.056-5.616 1.056-2.016 0-3.84-.336-5.472-1.008-1.632-.672-2.928-1.68-3.888-2.976-1.008-1.344-1.584-2.784-1.776-4.368-.192-1.536-.288-4.272-.288-8.208v-6.48c0-3.792.096-6.528.288-8.112.192-1.584.72-3.024 1.68-4.32.96-1.344 2.208-2.352 3.84-3.024 1.584-.72 3.456-1.056 5.616-1.056 2.016 0 3.84.336 5.472 1.008 1.632.624 2.928 1.632 3.888 2.976 1.008 1.344 1.584 2.784 1.776 4.32.192 1.584.288 4.32.288 8.208v6.48zm-9.888-12.432c0-1.776-.096-2.928-.288-3.408-.192-.48-.576-.72-1.2-.72-.528 0-.912.192-1.2.576-.24.384-.384 1.584-.384 3.552v17.712c0 2.208.096 3.552.24 4.08.192.48.624.768 1.248.768.672 0 1.104-.288 1.296-.912.192-.576.288-2.016.288-4.224V47.93zM177.394 38.138h16.704v7.632h-6.816v7.2h6.096v7.2h-6.096v15.936h-9.888V38.138zM68.594 88.138v7.632h-5.856v30.336H52.85V95.77h-5.808v-7.632h21.552zM93.55 88.138v37.968h-9.887V110.17h-2.928v15.936h-9.888V88.138h9.888v13.584h2.928V88.138h9.888zM97.495 88.138h16.464v7.632h-6.576v7.2h6.144v7.2h-6.144v8.352h7.2v7.584H97.495V88.138zM146.926 88.138l-7.2 24.24v13.728h-9.12v-13.728l-6.96-24.24h9.072c1.44 7.392 2.208 12.384 2.4 14.976.528-4.08 1.44-9.024 2.736-14.976h9.072zM148.613 88.138h16.464v7.632h-6.576v7.2h6.144v7.2h-6.144v8.352h7.2v7.584h-17.088V88.138zM185.598 88.138l5.664 37.968h-10.128l-.48-6.816h-3.552l-.576 6.816h-10.224l5.04-37.968h14.256zm-5.232 24.432a451.6 451.6 0 01-1.488-15.936c-1.008 7.248-1.632 12.576-1.872 15.936h3.36zM192.933 88.138h7.008c4.656 0 7.776.192 9.456.576 1.632.336 2.976 1.248 4.032 2.736 1.008 1.488 1.536 3.84 1.536 7.056 0 2.976-.384 4.944-1.104 5.952-.72 1.008-2.16 1.632-4.32 1.824 1.92.48 3.264 1.152 3.936 1.968.672.816 1.056 1.536 1.248 2.256.144.672.24 2.544.24 5.616v9.984h-9.168v-12.624c0-2.016-.144-3.264-.48-3.744-.336-.48-1.152-.72-2.496-.72v17.088h-9.888V88.138zm9.888 6.528v8.448c1.104 0 1.872-.192 2.304-.48.432-.288.672-1.296.672-2.976v-2.064c0-1.2-.192-2.016-.624-2.4-.432-.336-1.248-.528-2.352-.528z" fill="#767676" fill-rule="nonzero"/><g><path d="M202.9 211.398c-2.578 0-5.16-.208-7.694.057-2.71.283-3.701 1.524-4.098 4.252-.102.703-.084 1.422-.147 2.13-.052.588.228.746.767.743 3.287-.015 6.573-.009 9.86-.016.178 0 .356-.058.475-.08.277-2.343.562-4.633.852-7.086m-.774 33.974c.043-.198.116-.375.116-.552.008-4.467.005-8.935.019-13.403.001-.545-.251-.68-.743-.678-3.257.01-6.515.014-9.772-.008-.607-.004-.808.201-.805.806.019 4.344.026 8.688-.001 13.032-.005.725.27.88.933.875 3.195-.026 6.39-.009 9.586-.012.213 0 .427-.037.667-.06m-61.25 7.33c-.557.354-.867.547-1.175.744-4.415 2.833-9.182 4.686-14.461 4.928-5.62.258-10.274-1.597-13.22-6.652-1.58-2.711-2.197-5.735-2.253-8.846-.065-3.664-.041-7.33.002-10.995.01-.883-.224-1.175-1.144-1.157a287.09 287.09 0 01-9.13.003c-.76-.01-1.033.195-1.018.987.054 2.888.041 5.776.064 8.665.003.37.044.744.11 1.11.464 2.593 1.786 3.547 4.41 3.084 1.21-.214 2.391-.588 3.688-.916v1.015c-.001 3.168-.053 6.338.025 9.504.023.978-.345 1.444-1.148 1.854a23.743 23.743 0 01-9.93 2.58c-2.371.095-4.803.031-7.131-.387-5.525-.992-8.989-4.669-9.9-10.227a32.108 32.108 0 01-.391-4.725c-.054-3.788-.015-7.578-.013-11.368v-1.16c-1.1 0-2.114-.035-3.125.013-.695.033-.912-.217-.907-.907a623.46 623.46 0 00-.004-10.343c-.007-.726.214-1.003.955-.943.71.058 1.43-.026 2.14.023.727.05.962-.207.955-.95-.037-3.478-.018-6.956-.019-10.435 0-1.233.001-1.244 1.203-1.247 6.057-.012 12.113-.006 18.168-.04.767-.005.852.348.85.964-.006 3.572.032 7.144.005 10.715-.006.783.247.993 1.011.99 9.753-.02 19.505-.011 29.257-.01 1.2 0 1.201.001 1.202 1.231.004 6.554-.009 13.108.028 19.662.005.951.16 1.922.393 2.847.44 1.744 1.667 2.75 3.453 2.904 2.329.2 4.502-.367 6.526-1.498.244-.136.504-.51.506-.775.029-3.914.016-7.828.008-11.741 0-.117-.058-.233-.118-.456-1.386 0-2.777-.047-4.164.017-.841.04-1.05-.267-1.04-1.068.038-3.354.035-6.71.001-10.064-.008-.774.16-1.08 1.021-1.077 7.827.034 15.653.032 23.48.002.82-.003 1.053.228 1.05 1.048-.03 8.2-.021 16.4-.026 24.6 0 1.23-.01 1.232 1.212 1.233 2.516 0 5.032-.025 7.547.013.745.012.957-.25.953-.968-.025-4.286-.023-8.573.001-12.86.004-.705-.258-.918-.933-.893-1.116.043-2.235 0-3.353.018-.508.008-.716-.174-.714-.706.016-3.572.017-7.144.002-10.716-.002-.556.18-.778.754-.76 1.055.033 2.113-.024 3.167.02.724.03.967-.156 1.054-.96.243-2.242.398-4.545 1.062-6.676 1.388-4.46 4.728-7.074 9.032-8.573 3.954-1.378 8.054-1.662 12.203-1.76 3.042-.072 6.687-.048 9.729.01.108.002.177.319.176.88-.006 2.95-.033 5.9-.021 8.85l-.013.903c.002.114.182-.23.183-.232.189-.433.43-.877.648-1.295 1.864-3.562 4.687-5.925 8.411-7.295 2.914-1.072 5.955-1.592 9.027-1.686 4.338-.134 8.683-.034 13.102-.034v10.503c-1.96 0-3.878-.069-5.789.014-4.597.198-5.923 1.664-6.076 6.268-.038 1.15-.08 1.15 1.102 1.088 1.86-.098 3.953.04 5.815-.026.693-.024.543.05.543.742 0 3.572-.024 7.145-.004 10.717.003.602-.26.73-.785.726-1.926-.016-3.852.019-5.777-.02-.704-.014-.904.236-.9.919.026 4.317.03 8.634.006 12.952-.004.667.223.861.86.849 1.646-.033 3.293.014 4.938-.028.662-.016.857.22.853.859-.022 3.51-.023 7.02-.001 10.53.004.651-.212.912-.865.838-.337-.038-.683-.002-1.024-.002h-85.065c-1.253 0-1.253 0-1.253-1.274v-3.67z" fill="#767676" fill-rule="nonzero"/><path d="M41.145 254.264v3.153H27.743v-18.673c.267-.022.509-.059.751-.06 4.006-.004 8.012.006 12.017-.018.614-.003.92.237 1.23.754 2.566 4.278 6.473 6.115 11.342 5.9 1.118-.048 2.308-.54 3.291-1.122 1.737-1.028 1.707-3.125-.101-4-1.6-.774-3.357-1.281-5.092-1.71-4.155-1.027-8.4-1.71-12.383-3.365-3.78-1.571-7.067-3.748-9.153-7.42-1.061-1.869-1.656-3.889-1.843-6.007-.426-4.823.27-9.431 2.993-13.555 3.305-5.006 8.137-7.486 13.959-8.245 5.134-.67 9.957.193 14.367 3.01.18.115.383.193.735.368v-2.894h12.928c.018.323.054.653.054.983.004 5.621-.019 11.243.024 16.864.007.92-.275 1.135-1.156 1.124a508.214 508.214 0 00-11.272-.007c-.726.007-1.002-.224-1.179-.929-1.216-4.84-5.288-7.012-10.035-5.377-1.1.378-2.025.998-2.237 2.26-.2 1.186.394 2.097 1.29 2.709 1.037.71 2.15 1.375 3.32 1.816 4.328 1.629 8.721 3.083 13.03 4.758a29.924 29.924 0 015.434 2.814c4.13 2.687 5.892 6.713 6.119 11.524.49 10.384-6.292 16.707-15.391 18.576-6.324 1.299-12.343.367-18.09-2.514-.46-.23-.934-.433-1.55-.717" fill="#767676" fill-rule="nonzero"/></g></svg>