<svg viewBox="0 0 288 288" xmlns="http://www.w3.org/2000/svg" fill-rule="evenodd" clip-rule="evenodd" stroke-linejoin="round" stroke-miterlimit="1.414"><g fill="#767676"><path d="M180.628 133.918h-13.22l18.436-50.758.088.032h17.943l.088-.032 18.47 50.745-13.219.013-.005-.013h-23.123l4.083-11.293h14.93l-10.193-28.004-14.278 39.31zm-68.463-50.726h13.322v50.726h-13.322V83.192zm-33.146 16.969H92.34v33.757H79.019v-33.757zm65.31 33.757h-13.321v-28.216h23.297a5.59 5.59 0 0 0 5.587-5.588 5.59 5.59 0 0 0-5.587-5.587h-23.297V83.192h25.143c9.339 0 16.922 7.583 16.922 16.922 0 9.34-7.582 16.922-16.922 16.922h-11.822v16.882zM64.696 83.192h41.967v11.335H64.696V83.192z"/><g font-family="'STHeitiTC-Medium','Heiti TC'" font-size="57.739"><text x="863.85" y="3048.8" transform="matrix(.43869 0 0 .43869 -323.049 -1162.66)">BEST IMAGING</text><text x="914.602" y="3117.68" transform="matrix(.43869 0 0 .43869 -323.049 -1162.66)">SOFTWARE</text></g><path d="M144.028.001l.464.002.464.004.463.005.462.006.463.008.462.01.461.011.462.012.461.014.46.016.46.016.46.019.46.019.459.021.458.023.459.024.458.025.457.027.458.029.456.029.457.031.456.033.455.034.456.035.455.037.454.038.454.04.454.041.453.043.453.044.452.045.452.046.452.049.451.049.451.051.45.052.45.054.45.055.449.056.448.058.448.059.448.061.448.062.446.063.447.065.446.066.446.067.445.069.444.07.445.072.443.073.444.074.442.076.443.077.442.078.441.08.441.081.441.082.44.084.439.085.44.086.438.088.438.089.438.09.437.092.437.093.436.094.436.096.435.097.435.098.434.1.434.101.433.102.433.104.432.105.432.106.431.107.43.109.431.11.429.111.429.113.429.114.428.115.428.117.427.118.426.119.426.12.425.122.425.123.425.124.424.125.423.127.422.128.423.129.421.131.421.132.421.133.42.134.419.136.419.136.418.139.418.139.417.14.417.142.416.143.415.145.415.145.414.147.414.148.413.149.412.15.412.152.412.153.41.154.41.155.41.157.409.158.408.159.408.16.407.161.407.163.405.164.406.165.404.166.404.167.404.169.403.169.402.171.401.173.401.173.401.174.399.176.399.177.399.178.398.179.397.181.396.181.396.183.395.184.395.185.393.186.394.188.392.188.392.19.391.191.391.192.39.193.389.194.389.195.388.197.387.198.386.199.386.2.385.201.385.202.384.203.383.205.382.205.382.207.381.208.381.209.379.21.379.211.378.213.378.213.377.215.376.215.375.217.375.218.374.219.373.22.373.221.372.222.371.223.37.225.37.225.369.227.368.227.367.229.367.23.366.231.365.231.365.233.363.235.363.235.362.236.362.237.361.238.36.24.359.24.358.242.358.242.357.244.356.244.355.246.355.246.354.248.353.249.352.25.351.25.351.252.35.253.349.254.348.255.348.256.346.257.346.258.345.259.345.26.343.261.343.262.342.263.341.264.34.265.34.266.338.267.338.268.337.269.336.27.336.271.334.271.334.273.333.274.332.275.331.276.33.277.329.278.329.278.328.28.327.281.326.281.325.283.325.284.323.284.323.286.322.286.32.287.32.289.32.289.318.29.317.291.317.292.316.293.315.294.313.295.314.296.312.297.311.298.31.298.31.3.308.3.308.301.307.303.306.303.305.304.304.305.303.306.302.307.302.307.3.309.3.309.298.311.298.311.297.312.295.313.295.314.294.315.293.316.292.316.291.318.291.318.289.319.288.32.288.321.286.322.286.323.284.323.284.325.282.325.282.326.281.327.279.328.279.328.278.33.277.33.276.331.274.332.274.333.273.334.272.334.271.335.27.337.269.337.268.337.267.339.266.339.265.341.264.341.263.342.262.342.261.344.26.344.259.345.258.346.257.347.256.347.255.349.254.349.252.35.252.35.251.352.25.352.249.353.247.354.247.354.246.356.244.356.244.357.242.357.242.359.24.359.239.36.239.361.237.361.236.362.235.363.234.364.233.365.232.365.231.366.23.366.228.368.228.368.227.369.225.37.224.37.224.371.222.372.221.372.22.374.219.374.218.374.217.376.215.376.215.377.213.377.212.379.212.379.21.379.209.381.208.381.206.381.206.383.204.383.204.384.202.384.201.385.2.386.199.387.198.387.196.388.196.389.194.389.193.39.192.39.191.391.19.392.188.393.188.393.186.394.185.395.184.395.182.396.182.396.18.397.18.398.178.398.177.399.175.4.175.4.173.401.172.402.171.402.17.403.169.403.167.404.166.405.165.405.164.406.162.407.162.407.16.408.159.408.158.409.156.409.156.41.154.411.153.411.151.412.151.413.149.413.148.414.147.414.145.415.144.415.143.416.142.417.141.417.139.417.138.419.137.419.136.419.134.42.133.42.132.421.13.422.13.422.128.423.126.423.126.424.124.424.123.425.122.426.12.426.119.426.118.427.116.428.116.428.114.428.112.429.112.43.11.43.108.431.108.431.106.432.105.432.104.433.102.433.101.434.099.434.099.435.097.435.095.436.095.436.093.437.091.437.091.437.089.439.088.438.086.439.085.44.084.44.082.44.081.441.08.442.078.442.077.442.076.443.074.443.073.444.071.444.07.445.069.445.068.446.066.446.064.446.064.447.062.447.06.448.06.448.057.449.057.449.055.45.053.45.053.45.051.451.049.451.048.451.047.452.045.453.044.453.043.453.041.454.039.454.038.454.037.455.036.455.034.456.032.456.031.456.03.457.028.457.027.458.026.458.024.458.022.459.021.459.02.459.018.46.017.461.015.46.014.461.013.461.011.462.009.462.008.462.007.463.005.463.004.463.002.464.001.464-.001.464-.002.464-.004.464-.005.463-.007.462-.008.463-.009.462-.011.461-.013.462-.014.461-.015.46-.017.46-.018.46-.02.46-.021.459-.022.458-.024.459-.026.458-.027.457-.028.458-.03.456-.031.457-.032.456-.034.455-.036.456-.037.455-.038.454-.039.454-.041.454-.043.453-.044.453-.045.452-.047.452-.048.452-.049.451-.051.451-.053.45-.053.45-.055.45-.057.449-.057.448-.06.448-.06.448-.062.448-.064.446-.064.447-.066.446-.068.446-.069.445-.07.444-.071.445-.073.443-.074.444-.076.442-.077.443-.078.442-.08.441-.081.441-.082.441-.084.44-.085.439-.086.44-.088.438-.089.438-.091.438-.091.437-.093.437-.095.436-.095.436-.097.435-.099.435-.099.434-.101.434-.102.433-.104.433-.105.432-.106.432-.108.431-.108.43-.11.431-.112.429-.112.429-.114.429-.116.428-.116.428-.118.427-.119.426-.12.426-.122.425-.123.425-.124.425-.126.424-.126.423-.128.422-.13.423-.13.421-.132.421-.133.421-.134.42-.136.419-.137.419-.138.418-.139.418-.141.417-.142.417-.143.416-.144.415-.145.415-.147.414-.148.414-.149.413-.151.412-.151.412-.153.412-.154.41-.156.41-.156.41-.158.409-.159.408-.16.408-.162.407-.162.407-.164.405-.165.406-.166.404-.167.404-.169.404-.17.403-.171.402-.172.401-.173.401-.175.401-.175.399-.177.399-.178.399-.18.398-.18.397-.182.396-.182.396-.184.395-.185.395-.186.393-.188.394-.188.392-.19.392-.191.391-.192.391-.193.39-.194.389-.196.389-.196.388-.198.387-.199.386-.2.386-.201.385-.202.385-.204.384-.204.383-.206.382-.206.382-.208.381-.209.381-.21.379-.212.379-.212.378-.213.378-.215.377-.215.376-.217.375-.218.375-.219.374-.22.373-.221.373-.222.372-.224.371-.224.37-.225.37-.227.369-.228.368-.228.367-.23.367-.231.366-.232.365-.233.365-.234.363-.235.363-.236.362-.237.362-.239.361-.239.36-.24.359-.242.358-.242.358-.244.357-.244.356-.246.355-.247.355-.247.354-.249.353-.25.352-.251.351-.252.351-.252.35-.254.349-.255.348-.256.348-.257.346-.258.346-.259.345-.26.345-.261.343-.262.343-.263.342-.264.341-.265.34-.266.34-.267.338-.268.338-.269.337-.27.336-.271.336-.272.334-.273.334-.274.333-.274.332-.276.331-.277.33-.278.329-.279.329-.279.328-.281.327-.282.326-.282.325-.284.325-.284.323-.286.323-.286.322-.288.32-.288.32-.289.32-.291.318-.291.317-.292.317-.293.316-.294.315-.295.313-.295.314-.297.312-.298.311-.298.31-.3.31-.3.308-.302.308-.302.307-.303.306-.304.305-.305.304-.306.303-.307.302-.308.302-.308.3-.31.3-.31.298-.311.298-.312.297-.314.295-.313.295-.315.294-.316.293-.317.292-.317.291-.318.291-.32.289-.32.288-.32.288-.322.286-.323.286-.323.284-.325.284-.325.282-.326.282-.327.281-.328.279-.329.279-.329.278-.33.277-.331.276-.332.274-.333.274-.334.273-.334.272-.336.271-.336.27-.337.269-.338.268-.338.267-.34.266-.34.265-.341.264-.342.263-.343.262-.343.261-.345.26-.345.259-.346.258-.346.257-.348.256-.348.255-.349.254-.35.252-.351.252-.351.251-.352.25-.353.249-.354.247-.355.247-.355.246-.356.244-.357.244-.358.242-.358.242-.359.24-.36.239-.361.239-.362.237-.362.236-.363.235-.363.234-.365.233-.365.232-.366.231-.367.23-.367.228-.368.228-.369.227-.37.225-.37.224-.371.224-.372.222-.373.221-.373.22-.374.219-.375.218-.375.217-.376.215-.377.215-.378.213-.378.212-.379.212-.379.21-.381.209-.381.208-.382.206-.382.206-.383.204-.384.204-.385.202-.385.201-.386.2-.386.199-.387.198-.388.196-.389.196-.389.194-.39.193-.391.192-.391.191-.392.19-.392.188-.394.188-.393.186-.395.185-.395.184-.396.182-.396.182-.397.18-.398.18-.399.178-.399.177-.399.175-.401.175-.401.173-.401.172-.402.171-.403.17-.404.169-.404.167-.404.166-.406.165-.405.164-.407.162-.407.162-.408.16-.408.159-.409.158-.41.156-.41.156-.41.154-.412.153-.412.151-.412.151-.413.149-.414.148-.414.147-.415.145-.415.144-.416.143-.417.142-.417.141-.418.139-.418.138-.419.137-.419.136-.42.134-.421.133-.421.132-.421.13-.423.13-.422.128-.423.126-.424.126-.425.124-.425.123-.425.122-.426.12-.426.119-.427.118-.428.116-.428.116-.429.114-.429.112-.429.112-.431.11-.43.108-.431.108-.432.106-.432.105-.433.104-.433.102-.434.101-.434.099-.435.099-.435.097-.436.095-.436.095-.437.093-.437.091-.438.091-.438.089-.438.088-.44.086-.439.085-.44.084-.441.082-.441.081-.441.08-.442.078-.443.077-.442.076-.444.074-.443.073-.445.071-.444.07-.445.069-.446.068-.446.066-.447.064-.446.064-.448.062-.448.06-.448.06-.448.057-.449.057-.45.055-.45.053-.45.053-.451.051-.451.049-.452.048-.452.047-.452.045-.453.044-.453.043-.454.041-.454.039-.454.038-.455.037-.456.036-.455.034-.456.032-.457.031-.456.03-.458.028-.457.027-.458.026-.459.024-.458.022-.459.021-.46.02-.46.018-.46.017-.46.015-.461.014-.462.013-.461.011-.462.009-.463.008-.462.007-.463.005-.464.004-.464.002-.464.001-.464-.001-.464-.002-.463-.004-.463-.005-.463-.007-.462-.008-.462-.009-.462-.011-.461-.013-.461-.014-.46-.015-.461-.017-.46-.018-.459-.02-.459-.021-.459-.022-.458-.024-.458-.026-.458-.027-.457-.028-.457-.03-.456-.031-.456-.032-.456-.034-.455-.036-.455-.037-.454-.038-.454-.039-.454-.041-.453-.043-.453-.044-.453-.045-.452-.047-.451-.048-.451-.049-.451-.051-.45-.053-.45-.053-.45-.055-.449-.057-.449-.057-.448-.06-.448-.06-.447-.062-.447-.064-.446-.064-.446-.066-.446-.068-.445-.069-.445-.07-.444-.071-.444-.073-.443-.074-.443-.076-.442-.077-.442-.078-.442-.08-.441-.081-.44-.082-.44-.084-.44-.085-.439-.086-.438-.088-.439-.089-.437-.091-.437-.091-.437-.093-.436-.095-.436-.095-.435-.097-.435-.099-.434-.099-.434-.101-.433-.102-.433-.104-.432-.105-.432-.106-.431-.108-.431-.108-.43-.11-.43-.112-.429-.112-.428-.114-.428-.116-.428-.116-.427-.118-.426-.119-.426-.12-.426-.122-.425-.123-.424-.124-.424-.126-.423-.126-.423-.128-.422-.13-.422-.13-.421-.132-.42-.133-.42-.134-.419-.136-.419-.137-.419-.138-.417-.139-.417-.141-.417-.142-.416-.143-.415-.144-.415-.145-.414-.147-.414-.148-.413-.149-.413-.151-.412-.151-.411-.153-.411-.154-.41-.156-.409-.156-.409-.158-.408-.159-.408-.16-.407-.162-.407-.162-.406-.164-.405-.165-.405-.166-.404-.167-.403-.169-.403-.17-.402-.171-.402-.172-.401-.173-.4-.175-.4-.175-.399-.177-.398-.178-.398-.18-.397-.18-.396-.182-.396-.182-.395-.184-.395-.185-.394-.186-.393-.188-.393-.188-.392-.19-.391-.191-.39-.192-.39-.193-.389-.194-.389-.196-.388-.196-.387-.198-.387-.199-.386-.2-.385-.201-.384-.202-.384-.204-.383-.204-.383-.206-.381-.206-.381-.208-.381-.209-.379-.21-.379-.212-.379-.212-.377-.213-.377-.215-.376-.215-.376-.217-.374-.218-.374-.219-.374-.22-.372-.221-.372-.222-.371-.224-.37-.224-.37-.225-.369-.227-.368-.228-.368-.228-.366-.23-.366-.231-.365-.232-.365-.233-.364-.234-.363-.235-.362-.236-.361-.237-.361-.239-.36-.239-.359-.24-.359-.242-.357-.242-.357-.244-.356-.244-.356-.246-.354-.247-.354-.247-.353-.249-.352-.25-.352-.251-.35-.252-.35-.252-.349-.254-.349-.255-.347-.256-.347-.257-.346-.258-.345-.259-.344-.26-.344-.261-.342-.262-.342-.263-.341-.264-.341-.265-.339-.266-.339-.267-.337-.268-.337-.269-.337-.27-.335-.271-.334-.272-.334-.273-.333-.274-.332-.274-.331-.276-.33-.277-.33-.278-.328-.279-.328-.279-.327-.281-.326-.282-.325-.282-.325-.284-.323-.284-.323-.286-.322-.286-.321-.288-.32-.288-.319-.289-.318-.291-.318-.291-.316-.292-.316-.293-.315-.294-.314-.295-.313-.295-.312-.297-.311-.298-.311-.298-.309-.3-.309-.3-.307-.302-.307-.302-.306-.303-.305-.304-.304-.305-.303-.306-.303-.307-.301-.308-.3-.308-.3-.31-.298-.31-.298-.311-.297-.312-.296-.314-.295-.313-.294-.315-.293-.316-.292-.317-.291-.317-.29-.318-.289-.32-.289-.32-.287-.32-.286-.322-.286-.323-.284-.323-.284-.325-.283-.325-.281-.326-.281-.327-.28-.328-.278-.329-.278-.329-.277-.33-.276-.331-.275-.332-.274-.333-.273-.334-.271-.334-.271-.336-.27-.336-.269-.337-.268-.338-.267-.338-.266-.34-.265-.34-.264-.341-.263-.342-.262-.343-.261-.343-.26-.345-.259-.345-.258-.346-.257-.346-.256-.348-.255-.348-.254-.349-.253-.35-.252-.351-.25-.351-.25-.352-.249-.353-.248-.354-.246-.355-.246-.355-.244-.356-.244-.357-.242-.358-.242-.358-.24-.359-.24-.36-.238-.361-.237-.362-.236-.362-.235-.363-.235-.363-.233-.365-.231-.365-.231-.366-.23-.367-.229-.367-.227-.368-.227-.369-.225-.37-.225-.37-.223-.371-.222-.372-.221-.373-.22-.373-.219-.374-.218-.375-.217-.375-.215-.376-.215-.377-.213-.378-.213-.378-.211-.379-.21-.379-.209-.381-.208-.381-.207-.382-.205-.382-.205-.383-.203-.384-.202-.385-.201-.385-.2-.386-.199-.386-.198-.387-.197-.388-.195-.389-.194-.389-.193-.39-.192-.391-.191-.391-.19-.392-.188-.392-.188-.394-.186-.393-.185-.395-.184-.395-.183-.396-.181-.396-.181-.397-.179-.398-.178-.399-.177-.399-.176-.399-.174-.401-.173-.401-.173-.401-.171-.402-.169-.403-.169-.404-.167-.404-.166-.404-.165-.406-.164-.405-.163-.407-.161-.407-.16-.408-.159-.408-.158-.409-.157-.41-.155-.41-.154-.41-.153-.412-.152-.412-.15-.412-.149-.413-.148-.414-.147-.414-.145-.415-.145-.415-.143-.416-.142-.417-.14-.417-.139-.418-.139-.418-.136-.419-.136-.419-.134-.42-.133-.421-.132-.421-.131-.421-.129-.423-.128-.422-.127-.423-.125-.424-.124-.425-.123-.425-.122-.425-.12-.426-.119-.426-.118-.427-.117-.428-.115-.428-.114-.429-.113-.429-.111-.429-.11-.431-.109-.43-.107-.431-.106-.432-.105-.432-.104-.433-.102-.433-.101-.434-.1-.434-.098-.435-.097-.435-.096-.436-.094-.436-.093-.437-.092-.437-.09-.438-.089-.438-.088-.438-.086-.44-.085-.439-.084-.44-.082-.441-.081-.441-.08-.441-.078-.442-.077-.443-.076-.442-.074-.444-.073-.443-.072-.445-.07-.444-.069-.445-.067-.446-.066-.446-.065-.447-.063-.446-.062-.448-.061-.448-.059-.448-.058-.448-.056-.449-.055-.45-.054-.45-.052-.45-.051-.451-.049-.451-.049-.452-.046-.452-.045-.452-.044-.453-.043-.453-.041-.454-.04-.454-.038-.454-.037-.455-.035-.456-.034-.455-.033-.456-.031-.457-.029-.456-.029-.458-.027-.457-.025-.458-.024-.459-.023-.458-.021-.459-.019-.46-.019-.46-.016-.46-.016-.46-.014-.461-.012-.462-.011-.461-.01-.462-.008-.463-.006-.462-.005-.463-.004-.464-.002-.464-.001-.464.001-.464.002-.464.004-.463.005-.463.006-.463.008-.462.01-.462.011-.462.012-.461.014-.461.016-.46.016-.461.019-.46.019-.459.021-.459.023-.459.024-.458.025-.458.027-.458.029-.457.029-.457.031-.456.033-.456.034-.456.035-.455.037-.455.038-.454.04-.454.041-.454.043-.453.044-.453.045-.453.046-.452.049-.451.049-.451.051-.451.052-.45.054-.45.055-.45.056-.449.058-.449.059-.448.061-.448.062-.447.063-.447.065-.446.066-.446.067-.446.069-.445.07-.445.072-.444.073-.444.074-.443.076-.443.077-.442.078-.442.08-.442.081-.441.082-.44.084-.44.085-.44.086-.439.088-.438.089-.439.09-.437.092-.437.093-.437.094-.436.096-.436.097-.435.098-.435.1-.434.101-.434.102-.433.104-.433.105-.432.106-.432.107-.431.109-.431.11-.43.111-.43.113-.429.114-.428.115-.428.117-.428.118-.427.119-.426.12-.426.122-.426.123-.425.124-.424.125-.424.127-.423.128-.423.129-.422.131-.422.132-.421.133-.42.134-.42.136-.419.136-.419.139-.419.139-.417.14-.417.142-.417.143-.416.145-.415.145-.415.147-.414.148-.414.149-.413.15-.413.152-.412.153-.411.154-.411.155-.41.157-.409.158-.409.159-.408.16-.408.161-.407.163-.407.164-.406.165-.405.166-.405.167-.404.169-.403.169-.403.171-.402.173-.402.173-.401.174-.4.176-.4.177-.399.178-.398.179-.398.181-.397.181-.396.183-.396.184-.395.185-.395.186-.394.188-.393.188-.393.19-.392.191-.391.192-.39.193-.39.194-.389.195-.389.197-.388.198-.387.199-.387.2-.386.201-.385.202-.384.203-.384.205-.383.205-.383.207-.381.208-.381.209-.381.21-.379.211-.379.213-.379.213-.377.215-.377.215-.376.217-.376.218-.374.219-.374.22-.374.221-.372.222-.372.223-.371.225-.37.225-.37.227-.369.227-.368.229-.368.23-.366.231-.366.231-.365.233-.365.235-.364.235-.363.236-.362.237-.361.238-.361.24-.36.24-.359.242-.359.242-.357.244-.357.244-.356.246-.356.246-.354.248-.354.249-.353.25-.352.25-.352.252-.35.253-.35.254-.349.255-.349.256-.347.257-.347.258-.346.259-.345.26-.344.261-.344.262-.342.263-.342.264-.341.265-.341.266-.339.267-.339.268-.337.269-.337.27-.337.271-.335.271-.334.273-.334.274-.333.275-.332.276-.331.277-.33.278-.33.278-.328.28-.328.281-.327.281-.326.283-.325.284-.325.284-.323.286-.323.286-.322.287-.321.289-.32.289-.319.29-.318.291-.318.292-.316.293-.316.294-.315.295-.314.296-.313.297-.312.298-.311.298-.311.3-.309.3-.309.301-.307.303-.307.303-.306.304-.305.305-.304.306-.303.307-.303.307-.301.309-.3.309-.3.311-.298.311-.298.312-.297.313-.296.314-.295.315-.294.316-.293.316-.292.318-.291.318-.29.319-.289.32-.289.321-.287.322-.286.323-.286.323-.284.325-.284.325-.283.326-.281.327-.281.328-.28.328-.278.33-.278.33-.277.331-.276.332-.275.333-.274.334-.273.334-.271.335-.271.337-.27.337-.269.337-.268.339-.267.339-.266.341-.265.341-.264.342-.263.342-.262.344-.261.344-.26.345-.259.346-.258.347-.257.347-.256.349-.255.349-.254.35-.253.35-.252.352-.25.352-.25.353-.249.354-.248.354-.246.356-.246.356-.244.357-.244.357-.242.359-.242.359-.24.36-.24.361-.238.361-.237.362-.236.363-.235.364-.235.365-.233.365-.231.366-.231.366-.23.368-.229.368-.227.369-.227.37-.225.37-.225.371-.223.372-.222.372-.221.374-.22.374-.219.374-.218.376-.217.376-.215.377-.215.377-.213.379-.213.379-.211.379-.21.381-.209.381-.208.381-.207.383-.205.383-.205.384-.203.384-.202.385-.201.386-.2.387-.199.387-.198.388-.197.389-.195.389-.194.39-.193.39-.192.391-.191.392-.19.393-.188.393-.188.394-.186.395-.185.395-.184.396-.183.396-.181.397-.181.398-.179.398-.178.399-.177.4-.176.4-.174.401-.173.402-.173.402-.171.403-.169.403-.169.404-.167.405-.166.405-.165.406-.164.407-.163.407-.161.408-.16.408-.159.409-.158.409-.157.41-.155.411-.154.411-.153.412-.152.413-.15.413-.149.414-.148.414-.147.415-.145.415-.145.416-.143.417-.142.417-.14.417-.139.419-.139.419-.136.419-.136.42-.134.42-.133.421-.132.422-.131.422-.129.423-.128.423-.127.424-.125.424-.124.425-.123.426-.122.426-.12.426-.119.427-.118.428-.117.428-.115.428-.114.429-.113.43-.111.43-.11.431-.109.431-.107.432-.106.432-.105.433-.104.433-.102.434-.101.434-.1.435-.098.435-.097.436-.096.436-.094.437-.093.437-.092.437-.09.439-.089.438-.088.439-.086.44-.085.44-.084.44-.082.441-.081.442-.08.442-.078.442-.077.443-.076.443-.074.444-.073.444-.072.445-.07.445-.069.446-.067.446-.066.446-.065.447-.063.447-.062.448-.061.448-.059.449-.058.449-.056.45-.055.45-.054.45-.052.451-.051.451-.049.451-.049.452-.046.453-.045.453-.044.453-.043.454-.041.454-.04.454-.038.455-.037.455-.035.456-.034.456-.033.456-.031.457-.029.457-.029.458-.027.458-.025.458-.024.459-.023.459-.021.459-.019.46-.019.461-.016.46-.016.461-.014.461-.012.462-.011.462-.01.462-.008.463-.006.463-.005.463-.004.464-.002.464-.001.464.001zm-.921 2l-.458.002-.457.004-.457.005-.456.006-.456.008-.456.01-.455.01-.455.013-.455.013-.454.015-.453.017-.454.018-.454.019-.452.021-.452.022-.452.024-.452.025-.451.027-.451.027-.451.03-.45.031-.449.032-.45.033-.449.035-.448.037-.449.037-.447.039-.447.041-.448.042-.446.043-.446.045-.446.046-.445.047-.445.049-.445.05-.444.051-.443.053-.443.055-.443.055-.443.057-.442.059-.441.059-.441.061-.441.063-.441.064-.439.065-.439.067-.44.067-.438.069-.437.071-.438.072-.438.073-.436.075-.436.076-.436.077-.435.078-.435.08-.435.081-.433.083-.434.084-.432.085-.433.086-.432.088-.431.089-.432.091-.431.092-.43.092-.429.095-.429.095-.429.097-.428.099-.428.099-.427.101-.426.102-.427.103-.425.105-.425.106-.425.107-.424.109-.424.11-.423.111-.423.112-.421.114-.422.115-.421.116-.421.117-.42.119-.419.12-.419.121-.418.122-.418.124-.418.125-.416.126-.417.128-.415.128-.415.13-.415.132-.414.132-.413.134-.413.135-.413.136-.412.137-.411.139-.41.139-.41.141-.41.143-.409.143-.409.145-.407.146-.408.147-.407.148-.406.15-.405.151-.405.152-.404.153-.404.154-.404.156-.402.156-.402.158-.401.159-.401.161-.4.161-.4.163-.399.164-.398.164-.398.167-.398.167-.396.169-.396.169-.395.171-.395.172-.394.174-.394.174-.392.176-.392.176-.392.178-.391.179-.39.181-.39.181-.389.182-.388.184-.388.185-.387.186-.387.187-.385.188-.385.189-.385.191-.384.191-.383.193-.382.194-.382.195-.381.196-.381.197-.379.198-.379.199-.379.201-.378.202-.377.203-.376.203-.376.205-.375.206-.374.208-.374.208-.373.209-.373.211-.371.211-.371.213-.37.213-.37.215-.368.216-.368.217-.368.218-.366.219-.366.22-.366.222-.364.222-.364.223-.363.225-.362.225-.362.227-.361.228-.36.228-.359.23-.359.231-.358.232-.357.232-.356.235-.356.235-.355.235-.354.237-.354.238-.352.24-.352.24-.352.241-.35.242-.35.244-.349.244-.348.245-.347.246-.346.248-.346.248-.345.249-.345.251-.343.251-.343.252-.342.254-.341.254-.34.256-.34.256-.338.257-.338.259-.338.259-.335.26-.336.262-.335.262-.334.263-.333.264-.332.266-.332.266-.331.267-.329.268-.33.27-.328.27-.327.271-.327.272-.326.273-.324.273-.324.276-.324.276-.322.276-.322.278-.32.279-.32.279-.319.281-.319.282-.317.282-.317.284-.315.284-.315.285-.314.286-.313.287-.312.288-.311.289-.311.29-.309.291-.309.292-.308.292-.307.294-.306.294-.305.296-.304.296-.304.297-.302.298-.302.299-.301.3-.3.301-.299.302-.298.302-.297.304-.296.304-.296.305-.294.306-.294.307-.292.308-.292.309-.291.309-.29.311-.289.311-.287.312-.288.314-.286.313-.285.315-.285.316-.283.316-.283.318-.281.318-.28.318-.28.321-.279.32-.278.322-.277.323-.276.323-.274.323-.274.326-.274.326-.271.326-.271.327-.27.328-.269.329-.269.33-.267.331-.266.332-.265.332-.265.333-.263.334-.262.335-.261.335-.261.337-.259.337-.259.338-.257.338-.256.34-.256.34-.254.342-.254.341-.252.343-.251.344-.251.344-.249.345-.248.346-.248.346-.246.347-.245.349-.245.349-.243.349-.242.35-.241.352-.24.352-.239.352-.238.354-.238.354-.236.355-.235.356-.233.356-.233.357-.232.358-.231.359-.23.359-.229.36-.227.361-.227.362-.225.362-.225.363-.223.364-.223.365-.221.365-.22.365-.219.367-.218.368-.217.368-.216.368-.214.37-.214.37-.213.371-.211.372-.211.372-.209.373-.208.374-.208.374-.206.375-.205.376-.204.376-.202.377-.202.378-.2.378-.2.379-.198.381-.197.38-.196.381-.195.382-.194.382-.193.383-.192.384-.19.385-.189.385-.188.386-.187.386-.186.387-.185.387-.184.389-.182.39-.182.389-.18.39-.179.391-.177.391-.177.393-.176.392-.174.394-.174.394-.171.395-.171.395-.17.396-.169.397-.167.397-.166.397-.165.399-.164.399-.163.399-.161.401-.161.401-.159.401-.158.402-.156.402-.156.404-.154.404-.153.404-.152.405-.151.405-.15.407-.148.406-.147.407-.146.408-.145.409-.143.408-.142.41-.142.411-.139.41-.139.411-.137.413-.136.411-.135.413-.134.414-.132.414-.132.415-.13.415-.128.415-.128.417-.126.416-.125.418-.124.418-.122.418-.121.419-.12.419-.119.42-.117.421-.116.421-.115.422-.114.421-.112.423-.111.423-.11.424-.109.424-.107.425-.106.425-.105.426-.103.425-.102.427-.101.427-.099.428-.099.428-.097.429-.095.429-.094.43-.094.43-.091.43-.091.431-.089.432-.088.432-.086.432-.085.433-.084.434-.083.434-.081.434-.08.434-.078.436-.077.436-.076.436-.075.436-.073.438-.072.437-.07.438-.07.439-.068.439-.066.439-.065.44-.064.44-.062.44-.062.441-.059.442-.059.442-.057.443-.055.442-.055.444-.053.443-.051.444-.05.445-.049.445-.048.445-.046.445-.044.447-.043.447-.042.447-.041.447-.039.448-.038.447-.036.449-.035.449-.033.45-.032.449-.031.45-.03.451-.027.45-.027.452-.025.452-.024.452-.022.452-.021.453-.019.453-.018.453-.017.454-.015.455-.014.454-.012.455-.01.455-.01.456-.008.456-.006.456-.006.457-.003.457-.002.458-.001.457.001.458.002.458.003.457.006.456.006.457.008.455.01.456.01.456.012.455.014.454.015.455.017.453.018.454.019.453.021.453.022.452.024.452.025.452.027.451.027.451.03.45.031.451.032.449.033.449.035.45.036.448.038.448.039.448.041.447.042.447.043.447.044.446.046.445.048.446.049.445.05.444.051.445.053.443.055.443.055.443.057.442.059.443.059.441.062.441.062.44.064.441.065.44.066.439.068.439.07.439.07.437.072.438.073.437.075.437.076.436.077.436.078.435.08.435.081.434.083.434.084.434.085.433.086.432.088.432.089.432.091.43.091.431.094.43.094.43.095.429.097.428.099.429.099.428.101.427.102.426.103.426.105.426.106.425.107.424.109.425.11.423.111.424.112.422.114.422.115.422.116.421.117.42.119.42.12.42.121.419.122.418.124.418.125.417.126.417.128.416.128.416.13.415.132.414.132.414.134.414.135.413.136.412.137.412.139.412.139.41.142.41.142.41.143.409.145.408.146.408.147.407.148.407.15.406.151.406.152.405.153.404.154.404.156.403.156.403.158.401.159.402.161.401.161.4.163.4.164.399.165.398.166.398.167.397.169.397.17.396.171.395.172.395.173.394.174.393.176.393.177.392.177.392.179.391.18.39.182.389.182.39.184.388.185.387.186.387.187.387.188.386.189.385.191.384.191.384.193.383.194.383.195.382.196.381.197.38.198.38.2.379.2.379.202.377.202.377.204.377.205.376.206.375.208.374.208.374.209.373.211.372.211.372.213.37.214.371.214.369.216.369.217.368.218.367.219.367.22.366.221.365.223.365.224.364.224.363.225.362.227.361.227.361.229.36.23.36.231.359.232.357.233.358.233.356.235.356.237.355.237.354.237.353.24.353.24.352.241.352.242.35.243.349.245.349.245.348.246.348.248.346.248.346.249.345.251.344.251.344.252.342.254.342.254.341.256.341.256.339.257.339.259.338.259.337.261.336.261.336.262.335.263.334.265.333.265.332.266.331.267.331.269.33.269.329.27.328.271.328.272.326.273.326.274.325.274.324.276.323.277.323.278.321.279.321.28.32.28.319.281.318.283.318.284.316.284.316.285.314.286.314.287.313.288.313.289.311.29.311.291.309.292.309.292.308.294.306.294.306.296.306.296.304.297.304.298.302.299.302.3.301.301.299.302.299.302.298.304.298.304.296.305.295.306.295.307.293.308.293.309.292.309.29.311.29.311.289.312.288.313.288.314.286.315.285.315.284.317.284.318.282.318.282.319.28.32.28.32.279.322.277.323.277.323.276.324.275.324.274.326.273.327.272.327.271.328.27.329.269.33.268.331.268.332.266.332.265.333.264.334.264.335.262.335.261.337.261.337.259.338.258.338.257.34.257.34.255.342.255.341.253.343.252.343.252.345.25.345.25.346.248.346.247.347.246.349.246.349.244.35.244.349.242.351.241.353.24.352.239.354.238.354.237.354.236.357.235.356.234.357.233.358.232.359.231.359.23.36.228.362.228.361.227.362.225.363.225.364.223.364.222.366.221.366.221.366.219.367.218.368.216.369.216.37.215.37.214.371.213.372.211.372.211.373.209.374.208.374.208.375.206.375.204.377.204.377.203.378.202.378.2.38.2.379.198.381.197.381.196.382.195.383.194.383.193.382.191.386.19.386.19.384.188.387.187.388.186.386.185.389.183.39.183.389.181.39.18.391.179.392.178.392.177.393.176.392.174.395.173.395.172.396.171.395.17.396.168.398.168.398.166.398.165.399.164.4.163.399.161.401.16.402.159.402.158.403.157.403.156.404.154.404.153.404.152.407.151.406.15.406.148.408.147.407.146.409.144.409.144.409.142.411.141.41.14.412.139.411.137.413.136.413.135.412.134.415.132.415.131.415.13.416.129.415.127.417.126.418.126.418.123.418.123.419.121.419.12.42.118.421.118.421.116.421.115.423.114.422.112.423.111.424.11.424.108.425.107.425.107.425.104.427.104.426.102.427.101.428.099.428.098.429.097.429.096.43.094.43.093.43.092.431.091.432.088.431.088.433.086.433.086.434.084.433.082.435.081.435.081.435.078.435.077.437.076.437.075.436.073.438.071.438.071.439.069.439.068.439.067.44.065.44.064.441.062.441.061.441.06.442.058.443.057.443.056.442.054.444.053.444.052.445.05.445.049.445.047.445.046.448.045.445.043.447.042.448.04.448.04.448.037.448.037.45.035.448.033.45.032.45.031.45.029.452.028.451.027.452.025.451.023.452.022.454.021.453.02.453.018.455.016.454.016.454.013.455.012.456.011.455.01.456.007.456.007.458.005.456.004.457.002.458.001.459-.001.457-.002.456-.004.457-.005.457-.007.456-.007.455-.01.456-.011.455-.012.454-.013.454-.016.455-.016.453-.018.452-.02.454-.021.452-.022.452-.023.452-.025.451-.027.451-.028.45-.029.45-.031.45-.032.449-.033.449-.035.449-.037.448-.037.447-.04.449-.04.446-.042.446-.043.447-.045.446-.046.445-.047.445-.049.444-.05.445-.052.443-.053.443-.054.443-.056.443-.057.442-.058.441-.06.441-.061.441-.062.44-.064.44-.065.439-.067.439-.068.438-.069.439-.071.438-.071.436-.073.436-.075.437-.076.436-.077.434-.078.435-.081.435-.081.434-.082.433-.084.434-.086.432-.086.432-.088.432-.088.43-.091.431-.092.43-.093.43-.094.429-.096.428-.097.429-.098.427-.099.427-.101.427-.102.426-.104.426-.104.425-.107.425-.107.424-.108.424-.11.423-.111.422-.112.422-.114.422-.115.42-.116.421-.118.421-.118.419-.12.418-.121.419-.123.418-.123.417-.126.417-.126.415-.127.416-.129.416-.13.415-.131.414-.132.412-.134.414-.135.412-.136.412-.137.411-.139.411-.14.411-.141.409-.142.409-.144.409-.144.407-.146.408-.147.406-.148.406-.15.406-.151.405-.152.404-.153.404-.154.403-.156.403-.157.402-.158.401-.159.401-.16.4-.161.4-.163.399-.164.398-.165.398-.166.397-.168.397-.168.395-.17.396-.171.395-.172.394-.173.393-.174.393-.176.392-.177.392-.178.391-.179.39-.18.389-.181.39-.183.388-.183.387-.185.388-.186.386-.187.385-.188.386-.19.385-.19.383-.191.383-.193.383-.194.382-.195.381-.196.38-.197.38-.198.379-.2.379-.2.377-.202.378-.203.376-.204.376-.204.375-.206.374-.208.374-.208.373-.209.372-.211.372-.211.37-.213.37-.214.37-.215.369-.216.368-.216.367-.218.367-.219.366-.221.366-.221.364-.222.363-.223.364-.225.362-.225.361-.227.362-.228.36-.228.359-.23.358-.231.359-.232.357-.233.356-.234.356-.235.355-.236.354-.237.353-.238.353-.239.352-.24.351-.241.35-.242.35-.244.349-.244.348-.246.348-.246.346-.247.346-.248.345-.25.344-.25.344-.252.342-.252.342-.253.341-.255.341-.255.339-.256.339-.258.338-.258.337-.259.336-.261.336-.261.335-.262.334-.264.333-.264.332-.265.331-.266.331-.268.33-.268.329-.269.328-.27.328-.271.326-.272.326-.273.325-.274.324-.275.323-.276.323-.277.322-.277.32-.279.32-.28.319-.28.318-.282.318-.282.316-.284.316-.284.314-.285.314-.286.314-.288.312-.288.311-.289.311-.29.309-.29.309-.292.308-.293.307-.293.305-.295.306-.295.304-.296.304-.298.302-.298.302-.299.3-.299.3-.301.3-.302.297-.302.298-.304.296-.304.295-.305.294-.306.294-.308.293-.307.292-.309.29-.31.29-.31.29-.311.287-.313.288-.313.286-.314.285-.314.284-.316.284-.316.282-.318.282-.318.28-.319.28-.32.279-.321.277-.321.277-.323.276-.323.275-.324.274-.325.273-.326.272-.326.271-.327.27-.329.269-.329.268-.33.267-.33.267-.332.265-.333.264-.332.263-.334.263-.335.261-.336.261-.336.259-.337.258-.338.258-.339.256-.339.255-.341.255-.341.253-.342.253-.342.251-.344.25-.344.25-.345.248-.346.247-.346.247-.348.245-.348.244-.349.244-.35.242-.35.241-.351.24-.352.239-.353.238-.353.237-.354.236-.355.235-.356.234-.357.233-.357.232-.357.231-.359.23-.36.228-.36.228-.361.227-.361.225-.362.224-.363.224-.364.222-.365.221-.365.221-.366.218-.366.219-.368.217-.368.215-.369.215-.369.214-.371.213-.37.211-.372.211-.372.209-.373.208-.374.207-.374.206-.375.205-.376.204-.376.203-.377.202-.378.2-.379.2-.379.198-.38.197-.38.196-.381.195-.382.194-.383.193-.383.191-.384.191-.384.189-.385.188-.386.187-.386.186-.388.185-.387.183-.388.183-.39.181-.389.18-.391.179-.39.178-.392.177-.392.175-.393.175-.393.173-.394.172-.395.171-.395.17-.396.168-.397.168-.397.166-.398.165-.398.164-.399.163-.4.161-.4.16-.401.16-.402.158-.401.156-.403.156-.403.154-.404.153-.404.152-.405.151-.406.149-.406.149-.406.147-.408.146-.408.144-.408.144-.409.142-.41.141-.41.14-.41.138-.411.138-.413.136-.412.135-.413.134-.414.132-.414.131-.414.13-.415.129-.416.127-.416.126-.417.126-.417.123-.418.123-.418.121-.419.12-.42.118-.42.118-.42.116-.421.115-.422.114-.422.112-.422.111-.424.11-.423.108-.425.108-.424.106-.425.104-.426.104-.426.102-.427.1-.426.1-.428.098-.429.097-.428.096-.429.094-.43.093-.43.092-.431.09-.431.09-.431.087-.432.087-.433.085-.432.084-.434.082-.434.081-.434.08-.435.079-.435.077-.436.076-.436.074-.437.074-.437.072-.438.07-.438.069-.438.068-.439.067-.439.065-.44.064-.441.062-.44.061-.441.06-.441.058-.443.057-.442.056-.443.054-.443.053-.443.052-.445.05-.444.049-.445.047-.445.046-.446.045-.447.043-.446.042-.447.041-.447.039-.447.037-.449.037-.449.034-.448.034-.45.032-.45.031-.45.029-.45.028-.451.027-.451.025-.452.023-.452.023-.452.02-.453.02-.453.018-.454.016-.453.015-.455.014-.454.012-.455.011-.456.01-.455.008-.456.006-.457.005-.456.004-.458.002-.457.001-.458-.001-.457-.002-.458-.004-.457-.005-.457-.006-.456-.008-.456-.01-.456-.011-.455-.012-.455-.014-.455-.015-.454-.016-.453-.018-.454-.02-.454-.02-.452-.023-.452-.023-.452-.025-.452-.027-.452-.028-.45-.029-.451-.031-.449-.032-.45-.034-.45-.034-.449-.037-.449-.037-.448-.039-.447-.041-.447-.042-.448-.043-.446-.045-.446-.046-.446-.047-.445-.049-.445-.05-.445-.052-.444-.053-.443-.054-.444-.056-.442-.057-.443-.058-.442-.06-.442-.061-.44-.062-.441-.064-.441-.065-.439-.067-.439-.068-.44-.069-.438-.07-.438-.072-.437-.073-.438-.075-.436-.076-.436-.077-.436-.079-.435-.08-.435-.081-.435-.082-.433-.084-.434-.085-.433-.087-.432-.087-.433-.09-.43-.09-.432-.092-.431-.093-.429-.094-.43-.096-.429-.097-.429-.098-.428-.1-.428-.1-.427-.102-.427-.104-.426-.104-.425-.106-.425-.108-.425-.108-.424-.11-.424-.111-.423-.112-.423-.114-.421-.115-.422-.116-.421-.118-.421-.118-.42-.12-.419-.121-.419-.123-.418-.123-.418-.126-.418-.126-.416-.127-.417-.129-.415-.13-.415-.131-.415-.132-.414-.134-.413-.135-.413-.136-.413-.138-.412-.138-.411-.14-.41-.141-.41-.142-.41-.144-.409-.144-.409-.146-.407-.147-.408-.149-.407-.149-.406-.151-.405-.152-.405-.153-.404-.154-.404-.156-.404-.156-.402-.158-.402-.16-.401-.16-.401-.161-.4-.163-.4-.164-.399-.165-.398-.166-.398-.168-.398-.168-.396-.17-.396-.171-.395-.172-.395-.173-.394-.175-.394-.175-.392-.177-.393-.178-.391-.179-.391-.18-.39-.181-.39-.183-.389-.183-.388-.185-.388-.186-.387-.187-.386-.188-.386-.189-.385-.191-.385-.191-.384-.193-.383-.194-.382-.195-.382-.196-.381-.197-.38-.199-.381-.199-.378-.2-.379-.202-.378-.203-.377-.204-.376-.205-.376-.206-.375-.207-.374-.208-.374-.209-.373-.211-.372-.211-.372-.213-.371-.214-.37-.215-.37-.215-.368-.217-.368-.219-.368-.218-.366-.221-.366-.221-.366-.222-.364-.224-.364-.224-.363-.226-.362-.226-.362-.228-.361-.228-.36-.23-.359-.231-.359-.232-.358-.233-.357-.234-.356-.235-.356-.236-.355-.237-.354-.238-.354-.239-.352-.24-.352-.241-.351-.243-.351-.243-.35-.244-.349-.245-.348-.247-.347-.247-.346-.248-.346-.25-.345-.25-.344-.251-.344-.253-.343-.253-.342-.255-.341-.255-.34-.256-.34-.258-.338-.258-.338-.259-.338-.261-.336-.261-.335-.263-.335-.263-.334-.264-.333-.265-.332-.267-.332-.267-.331-.268-.329-.269-.33-.27-.328-.271-.327-.272-.326-.273-.327-.274-.324-.275-.324-.276-.324-.277-.322-.277-.322-.279-.32-.28-.32-.28-.319-.282-.319-.282-.317-.284-.316-.284-.316-.285-.315-.286-.313-.288-.314-.287-.312-.29-.311-.29-.311-.29-.309-.292-.309-.293-.308-.294-.307-.294-.306-.295-.305-.296-.304-.298-.304-.297-.302-.299-.302-.301-.301-.301-.3-.301-.299-.302-.298-.304-.297-.304-.296-.305-.296-.306-.294-.308-.294-.307-.292-.309-.292-.31-.291-.31-.29-.311-.289-.312-.287-.314-.288-.314-.286-.314-.285-.316-.285-.316-.283-.318-.282-.318-.282-.319-.281-.32-.279-.32-.279-.322-.278-.323-.276-.323-.276-.324-.275-.325-.274-.326-.273-.326-.272-.327-.271-.329-.27-.329-.27-.33-.268-.33-.267-.332-.266-.332-.266-.333-.264-.334-.263-.335-.262-.336-.262-.336-.26-.337-.259-.338-.259-.339-.257-.339-.256-.341-.256-.341-.254-.342-.253-.343-.253-.343-.251-.344-.251-.345-.249-.346-.249-.346-.247-.348-.246-.348-.245-.349-.244-.35-.244-.35-.242-.351-.241-.352-.24-.353-.239-.353-.238-.354-.238-.355-.236-.356-.235-.356-.233-.358-.233-.358-.232-.358-.231-.36-.23-.359-.228-.362-.228-.361-.227-.362-.225-.364-.225-.364-.223-.364-.222-.365-.222-.366-.22-.366-.219-.368-.218-.368-.217-.369-.216-.369-.215-.371-.213-.37-.213-.372-.211-.372-.211-.373-.209-.374-.208-.374-.208-.375-.206-.376-.205-.376-.203-.377-.203-.379-.202-.378-.201-.379-.199-.38-.198-.38-.197-.381-.196-.382-.195-.383-.194-.383-.193-.384-.192-.384-.19-.385-.189-.386-.188-.386-.187-.388-.186-.387-.185-.388-.184-.389-.182-.39-.181-.391-.181-.39-.179-.392-.177-.392-.177-.393-.176-.394-.174-.394-.174-.394-.172-.395-.171-.396-.169-.397-.169-.397-.167-.398-.167-.398-.164-.399-.164-.4-.163-.4-.161-.401-.161-.402-.159-.401-.158-.403-.157-.403-.155-.404-.154-.404-.154-.405-.152-.406-.15-.405-.15-.407-.148-.408-.147-.408-.146-.408-.145-.409-.143-.41-.143-.41-.141-.41-.139-.411-.139-.413-.137-.412-.136-.413-.135-.414-.134-.414-.132-.414-.132-.415-.13-.416-.128-.416-.128-.417-.126-.417-.125-.418-.124-.418-.122-.419-.121-.42-.12-.42-.119-.42-.117-.421-.116-.422-.115-.422-.114-.422-.112-.424-.111-.423-.11-.425-.109-.424-.107-.425-.106-.426-.105-.426-.103-.427-.102-.427-.101-.427-.099-.429-.099-.428-.097-.429-.095-.43-.095-.43-.093-.431-.091-.431-.091-.431-.089-.432-.088-.433-.086-.432-.085-.434-.084-.434-.083-.434-.081-.435-.08-.435-.078-.436-.077-.436-.076-.437-.075-.437-.073-.438-.072-.437-.071-.439-.069-.439-.067-.439-.067-.44-.065-.44-.064-.441-.063-.441-.061-.441-.059-.442-.059-.443-.057-.443-.055-.443-.055-.443-.053-.445-.051-.444-.05-.445-.049-.445-.047-.446-.046-.447-.045-.446-.043-.447-.042-.448-.041-.446-.039-.449-.037-.449-.037-.448-.035-.45-.033-.45-.032-.45-.031-.45-.03-.451-.027-.451-.027-.452-.025-.452-.024-.452-.022-.453-.021-.453-.019-.454-.018-.453-.017-.455-.015-.455-.013-.454-.013-.456-.01-.455-.01-.456-.008-.457-.006-.456-.005-.458-.004-.457-.002-.458-.001-.457.001z"/></g></svg>