<svg viewBox="0 0 243 278" xmlns="http://www.w3.org/2000/svg" fill-rule="evenodd" clip-rule="evenodd" stroke-miterlimit="3"><g fill="#767676" fill-rule="nonzero"><path d="M45.831 24.6l-4.252 15.055h-2.068l-3.097-11.002a6.888 6.888 0 0 1-.242-1.533h-.042a7.778 7.778 0 0 1-.273 1.512l-3.118 11.023h-2.047L26.283 24.6h1.942l3.202 11.548c.133.483.217.987.252 1.512h.053c.035-.371.143-.875.325-1.512L35.385 24.6h1.69l3.192 11.632c.112.399.196.868.252 1.407h.042c.028-.364.122-.847.283-1.449L43.92 24.6h1.911zM48.717 26.175c-.307 0-.57-.105-.787-.315a1.063 1.063 0 0 1-.325-.798c0-.322.108-.589.325-.803.217-.213.48-.32.787-.32.315 0 .583.107.804.32.22.214.33.481.33.803 0 .308-.11.571-.33.788a1.105 1.105 0 0 1-.804.325zm.84 13.48h-1.721v-10.75h1.721v10.75zM61.966 39.655h-1.722v-6.131c0-2.282-.832-3.423-2.498-3.423-.861 0-1.573.324-2.137.971-.563.648-.845 1.465-.845 2.452v6.131h-1.721v-10.75h1.721v1.784h.042c.812-1.358 1.988-2.036 3.528-2.036 1.175 0 2.075.379 2.698 1.139.623.759.934 1.856.934 3.291v6.572zM74.385 39.655h-1.721v-1.827h-.042c-.798 1.386-2.03 2.079-3.696 2.079-1.351 0-2.43-.482-3.238-1.444-.809-.962-1.213-2.273-1.213-3.931 0-1.778.448-3.202 1.344-4.273.896-1.071 2.089-1.606 3.58-1.606 1.476 0 2.551.581 3.223 1.742h.042V23.74h1.721v15.915zm-1.721-4.861v-1.585c0-.868-.287-1.603-.861-2.205-.574-.602-1.302-.903-2.184-.903-1.05 0-1.876.385-2.477 1.155-.602.77-.903 1.834-.903 3.192 0 1.238.288 2.216.866 2.934.577.717 1.352 1.076 2.325 1.076.959 0 1.738-.347 2.336-1.04.598-.692.898-1.567.898-2.624zM82.364 39.907c-1.589 0-2.857-.503-3.806-1.507-.948-1.004-1.422-2.336-1.422-3.994 0-1.806.493-3.216 1.48-4.231.987-1.015 2.32-1.522 4-1.522 1.602 0 2.853.493 3.753 1.48.899.987 1.349 2.355 1.349 4.105 0 1.714-.485 3.088-1.454 4.12-.97 1.032-2.27 1.549-3.9 1.549zm.126-9.806c-1.106 0-1.981.377-2.625 1.129-.644.752-.966 1.79-.966 3.113 0 1.273.326 2.278.977 3.013.651.734 1.522 1.102 2.614 1.102 1.113 0 1.968-.361 2.566-1.082.599-.72.898-1.746.898-3.075 0-1.344-.299-2.38-.898-3.108-.598-.728-1.453-1.092-2.566-1.092zM104.011 28.905l-3.223 10.75h-1.785l-2.215-7.695a5.02 5.02 0 0 1-.168-.998h-.042c-.021.252-.094.578-.22.977l-2.404 7.716h-1.722l-3.254-10.75h1.805l2.226 8.083c.07.245.119.567.147.966h.084c.021-.308.084-.637.189-.987l2.477-8.062h1.575l2.226 8.104c.069.259.122.581.157.966h.084c.014-.273.073-.595.178-.966l2.184-8.104h1.701zM105.354 39.266v-1.848c.938.693 1.971 1.04 3.097 1.04 1.512 0 2.268-.504 2.268-1.512 0-.287-.065-.53-.194-.73a1.956 1.956 0 0 0-.525-.53 4.043 4.043 0 0 0-.777-.414 45.82 45.82 0 0 0-.961-.384 12.3 12.3 0 0 1-1.254-.572 3.763 3.763 0 0 1-.903-.651 2.431 2.431 0 0 1-.546-.824 2.923 2.923 0 0 1-.184-1.081c0-.504.116-.95.347-1.338.231-.389.539-.714.924-.977.385-.262.824-.46 1.317-.593a5.85 5.85 0 0 1 1.528-.199c.931 0 1.763.161 2.498.483v1.742c-.791-.518-1.7-.777-2.729-.777-.322 0-.613.037-.872.111a2.112 2.112 0 0 0-.666.309 1.429 1.429 0 0 0-.431.478c-.101.185-.152.39-.152.614 0 .28.051.514.152.703.102.189.251.357.447.504.195.147.433.28.713.399.28.119.599.249.956.389.476.182.903.369 1.28.561.378.193.7.41.966.651.266.242.471.52.614.835.144.315.216.689.216 1.123 0 .532-.118.994-.352 1.386a3.019 3.019 0 0 1-.94.976 4.302 4.302 0 0 1-1.354.578 6.684 6.684 0 0 1-1.606.189c-1.106 0-2.065-.214-2.877-.641zM121.249 39.655V24.6h4.157c5.305 0 7.957 2.446 7.957 7.339 0 2.323-.736 4.19-2.21 5.6-1.473 1.41-3.445 2.116-5.915 2.116h-3.989zm1.763-13.459v11.863h2.247c1.973 0 3.51-.529 4.608-1.585 1.099-1.057 1.649-2.555 1.649-4.493 0-3.857-2.051-5.785-6.152-5.785h-2.352zM144.733 34.71h-7.59c.028 1.197.349 2.121.965 2.771.616.651 1.463.977 2.541.977 1.211 0 2.323-.399 3.338-1.197v1.617c-.945.686-2.194 1.029-3.748 1.029-1.518 0-2.712-.489-3.579-1.465-.868-.976-1.302-2.35-1.302-4.12 0-1.673.474-3.036 1.422-4.089.949-1.054 2.126-1.58 3.533-1.58s2.495.455 3.265 1.364c.77.91 1.155 2.173 1.155 3.79v.903zm-1.764-1.459c-.007-.994-.247-1.767-.719-2.32-.473-.553-1.129-.83-1.969-.83-.811 0-1.501.291-2.068.872-.567.581-.916 1.34-1.049 2.278h5.805zM155.787 28.905l-4.283 10.75h-1.69l-4.074-10.75h1.89l2.73 7.81c.203.574.329 1.074.378 1.501h.042a7.032 7.032 0 0 1 .335-1.459l2.856-7.852h1.816zM166.149 34.71h-7.59c.028 1.197.349 2.121.965 2.771.616.651 1.463.977 2.541.977 1.211 0 2.323-.399 3.338-1.197v1.617c-.945.686-2.194 1.029-3.748 1.029-1.518 0-2.712-.489-3.579-1.465-.868-.976-1.302-2.35-1.302-4.12 0-1.673.474-3.036 1.422-4.089.949-1.054 2.126-1.58 3.533-1.58s2.495.455 3.265 1.364c.77.91 1.155 2.173 1.155 3.79v.903zm-1.764-1.459c-.007-.994-.247-1.767-.719-2.32-.473-.553-1.129-.83-1.969-.83-.811 0-1.501.291-2.068.872-.567.581-.916 1.34-1.049 2.278h5.805zM168.752 23.74h1.722v15.915h-1.722zM178.452 39.907c-1.588 0-2.857-.503-3.805-1.507-.949-1.004-1.423-2.336-1.423-3.994 0-1.806.494-3.216 1.481-4.231.986-1.015 2.32-1.522 3.999-1.522 1.603 0 2.854.493 3.753 1.48.9.987 1.349 2.355 1.349 4.105 0 1.714-.484 3.088-1.454 4.12-.969 1.032-2.269 1.549-3.9 1.549zm.126-9.806c-1.105 0-1.98.377-2.624 1.129-.644.752-.966 1.79-.966 3.113 0 1.273.325 2.278.976 3.013.651.734 1.523 1.102 2.614 1.102 1.113 0 1.969-.361 2.567-1.082.598-.72.898-1.746.898-3.075 0-1.344-.3-2.38-.898-3.108-.598-.728-1.454-1.092-2.567-1.092zM188.321 38.101h-.042v6.498h-1.722V28.905h1.722v1.889h.042c.846-1.428 2.085-2.141 3.716-2.141 1.386 0 2.467.481 3.244 1.443.777.962 1.165 2.252 1.165 3.869 0 1.798-.437 3.238-1.312 4.32-.875 1.081-2.072 1.622-3.591 1.622-1.392 0-2.467-.602-3.222-1.806zm-.042-4.336v1.501c0 .889.288 1.643.866 2.263.577.619 1.31.929 2.199.929 1.043 0 1.86-.399 2.451-1.197.592-.798.887-1.907.887-3.328 0-1.197-.276-2.134-.829-2.813-.553-.679-1.302-1.019-2.247-1.019-1 0-1.805.349-2.414 1.045-.609.696-.913 1.569-.913 2.619zM207.836 34.71h-7.59c.028 1.197.35 2.121.966 2.771.616.651 1.463.977 2.541.977 1.21 0 2.323-.399 3.338-1.197v1.617c-.945.686-2.194 1.029-3.748 1.029-1.518 0-2.712-.489-3.58-1.465-.867-.976-1.301-2.35-1.301-4.12 0-1.673.474-3.036 1.422-4.089.948-1.054 2.126-1.58 3.533-1.58 1.406 0 2.495.455 3.265 1.364.769.91 1.154 2.173 1.154 3.79v.903zm-1.763-1.459c-.007-.994-.247-1.767-.719-2.32-.473-.553-1.129-.83-1.969-.83-.812 0-1.501.291-2.068.872-.567.581-.917 1.34-1.05 2.278h5.806zM216.046 30.647c-.301-.231-.735-.346-1.302-.346-.735 0-1.349.346-1.842 1.039-.494.693-.74 1.638-.74 2.835v5.48h-1.722v-10.75h1.722v2.215h.042c.245-.756.619-1.346 1.123-1.769.504-.424 1.067-.635 1.69-.635.448 0 .791.049 1.029.147v1.784zM74.076 64.655h-1.953l-1.596-4.221h-6.383l-1.501 4.221H60.68L66.454 49.6h1.827l5.795 15.055zm-4.126-5.806l-2.362-6.414c-.077-.21-.154-.546-.231-1.008h-.042c-.07.427-.151.763-.242 1.008l-2.341 6.414h5.218zM89.319 53.905l-3.223 10.75h-1.785l-2.215-7.695a5.02 5.02 0 0 1-.168-.998h-.042c-.021.252-.094.578-.22.977l-2.404 7.716H77.54l-3.255-10.75h1.806l2.226 8.083c.07.245.119.567.147.966h.084c.021-.308.084-.637.189-.987l2.477-8.062h1.575l2.225 8.104c.07.259.123.581.158.966h.084c.014-.273.073-.595.178-.966l2.184-8.104h1.701zM99.008 64.655h-1.721v-1.68h-.042c-.749 1.288-1.851 1.932-3.307 1.932-1.071 0-1.909-.284-2.514-.851-.606-.567-.909-1.319-.909-2.257 0-2.009 1.183-3.177 3.549-3.506l3.223-.452c0-1.826-.739-2.74-2.215-2.74-1.295 0-2.464.441-3.507 1.323V54.66c1.057-.671 2.275-1.007 3.654-1.007 2.526 0 3.789 1.336 3.789 4.01v6.992zm-1.721-5.438l-2.593.357c-.798.111-1.4.309-1.806.593-.406.283-.609.785-.609 1.506 0 .525.187.954.562 1.286.374.333.873.499 1.496.499.854 0 1.559-.299 2.115-.898.557-.598.835-1.356.835-2.273v-1.07zM107.858 55.647c-.301-.231-.735-.346-1.302-.346-.734 0-1.349.346-1.842 1.039-.493.693-.74 1.638-.74 2.835v5.48h-1.722v-10.75h1.722v2.215h.042c.245-.756.619-1.346 1.123-1.769.504-.424 1.068-.635 1.69-.635.448 0 .791.049 1.029.147v1.784zM118.619 64.655h-1.722v-1.827h-.042c-.798 1.386-2.03 2.079-3.695 2.079-1.351 0-2.431-.482-3.239-1.444-.808-.962-1.212-2.273-1.212-3.931 0-1.778.448-3.202 1.343-4.273.896-1.071 2.089-1.606 3.58-1.606 1.477 0 2.551.581 3.223 1.742h.042V48.74h1.722v15.915zm-1.722-4.861v-1.585c0-.868-.287-1.603-.861-2.205-.574-.602-1.302-.903-2.183-.903-1.05 0-1.876.385-2.478 1.155-.602.77-.903 1.834-.903 3.192 0 1.238.289 2.216.866 2.934.578.717 1.353 1.076 2.326 1.076.958 0 1.737-.347 2.335-1.04.599-.692.898-1.567.898-2.624zM121.453 64.266v-1.848c.938.693 1.97 1.04 3.097 1.04 1.512 0 2.268-.504 2.268-1.512 0-.287-.065-.53-.194-.73a1.956 1.956 0 0 0-.525-.53 4.043 4.043 0 0 0-.777-.414 48.116 48.116 0 0 0-.961-.384 12.2 12.2 0 0 1-1.254-.572 3.743 3.743 0 0 1-.903-.651 2.402 2.402 0 0 1-.546-.824 2.903 2.903 0 0 1-.184-1.081c0-.504.116-.95.347-1.338.231-.389.539-.714.923-.977.385-.262.825-.46 1.318-.593a5.842 5.842 0 0 1 1.527-.199c.931 0 1.764.161 2.499.483v1.742c-.791-.518-1.701-.777-2.73-.777-.321 0-.612.037-.871.111a2.112 2.112 0 0 0-.666.309 1.429 1.429 0 0 0-.431.478c-.101.185-.152.39-.152.614 0 .28.051.514.152.703.102.189.25.357.446.504.196.147.434.28.714.399.28.119.599.249.955.389.476.182.903.369 1.281.561.378.193.7.41.966.651.266.242.471.52.614.835.144.315.215.689.215 1.123 0 .532-.117.994-.351 1.386a3.019 3.019 0 0 1-.94.976 4.302 4.302 0 0 1-1.354.578 6.684 6.684 0 0 1-1.606.189c-1.106 0-2.065-.214-2.877-.641zM145.452 64.655h-9.071v-1.533l4.389-4.399c1.119-1.12 1.919-2.052 2.398-2.798.48-.745.72-1.541.72-2.388 0-.868-.249-1.54-.746-2.015-.497-.476-1.204-.714-2.12-.714-1.344 0-2.632.574-3.864 1.721v-1.805c1.176-.917 2.544-1.376 4.105-1.376 1.344 0 2.401.364 3.17 1.092.77.728 1.155 1.704 1.155 2.929 0 .966-.266 1.909-.798 2.829-.532.921-1.487 2.063-2.866 3.428l-3.474 3.433v.042h7.002v1.554zM152.611 64.907c-1.49 0-2.654-.641-3.49-1.922-.837-1.28-1.255-3.132-1.255-5.553 0-2.66.436-4.672 1.307-6.036.872-1.365 2.13-2.048 3.774-2.048 3.15 0 4.724 2.572 4.724 7.716 0 2.548-.444 4.492-1.333 5.832-.889 1.34-2.131 2.011-3.727 2.011zm.242-14.099c-2.149 0-3.223 2.18-3.223 6.54 0 4.073 1.053 6.11 3.16 6.11 2.078 0 3.118-2.072 3.118-6.215 0-4.29-1.019-6.435-3.055-6.435zM168.915 64.655h-8.514v-1.512h3.401V51.448l-3.485 1.039V50.85l5.207-1.586v13.879h3.391v1.512zM174.447 56.76v-.042c-1.805-.84-2.708-2.058-2.708-3.653 0-1.085.413-1.976 1.239-2.672.825-.696 1.889-1.045 3.191-1.045 1.176 0 2.142.326 2.897.977.756.651 1.134 1.487 1.134 2.509 0 1.665-.931 2.96-2.792 3.884v.042c2.197.784 3.296 2.142 3.296 4.073 0 1.246-.448 2.236-1.344 2.971-.895.735-2.141 1.103-3.737 1.103-1.288 0-2.348-.364-3.181-1.092-.833-.728-1.249-1.673-1.249-2.835 0-1.931 1.085-3.338 3.254-4.22zm3.99-3.716c0-.693-.217-1.239-.651-1.638-.434-.399-1.026-.598-1.774-.598-.7 0-1.293.208-1.78.624a2.004 2.004 0 0 0-.729 1.591c0 1.308.815 2.295 2.446 2.96 1.658-.686 2.488-1.666 2.488-2.939zm-2.604 4.535c-1.918.763-2.876 1.869-2.876 3.317 0 .749.278 1.363.834 1.843.557.479 1.29.719 2.2.719.867 0 1.576-.236 2.125-.709.55-.472.825-1.069.825-1.79 0-1.511-1.036-2.638-3.108-3.38z"/></g><g fill="#767676" fill-rule="nonzero"><path d="M37.141 216.034H35.47l-1.366-3.611h-5.462l-1.285 3.611h-1.68l4.941-12.883h1.564l4.959 12.883zm-3.531-4.968l-2.021-5.49c-.066-.179-.132-.467-.198-.862h-.036c-.06.365-.129.653-.207.862l-2.003 5.49h4.465zM40.546 211.165v4.869h-1.509v-12.883h3.54c1.377 0 2.445.335 3.203 1.006.757.671 1.136 1.617 1.136 2.839s-.421 2.222-1.262 3.001c-.842.778-1.978 1.168-3.41 1.168h-1.698zm0-6.649v5.283h1.581c1.043 0 1.838-.238 2.386-.714s.822-1.149.822-2.017c0-1.701-1.006-2.552-3.019-2.552h-1.77zM50.851 211.165v4.869h-1.509v-12.883h3.54c1.377 0 2.445.335 3.203 1.006.757.671 1.136 1.617 1.136 2.839s-.421 2.222-1.262 3.001c-.842.778-1.978 1.168-3.41 1.168h-1.698zm0-6.649v5.283h1.581c1.043 0 1.838-.238 2.386-.714s.822-1.149.822-2.017c0-1.701-1.006-2.552-3.019-2.552h-1.77zM66.331 216.034h-6.684v-12.883h1.509v11.518h5.175v1.365zM71.075 203.151v1.293h-1.258v10.297h1.258v1.293H67.05v-1.293h1.258v-10.297H67.05v-1.293h4.025zM81.973 215.495c-.952.503-2.138.755-3.558.755-1.833 0-3.3-.59-4.402-1.77-1.102-1.18-1.653-2.728-1.653-4.645 0-2.06.62-3.725 1.86-4.995 1.239-1.27 2.812-1.905 4.716-1.905 1.222 0 2.234.177 3.037.53v1.608c-.922-.515-1.941-.772-3.055-.772-1.479 0-2.678.494-3.598 1.482-.919.988-1.379 2.309-1.379 3.962 0 1.569.43 2.82 1.289 3.751.86.932 1.987 1.397 3.383 1.397 1.294 0 2.414-.287 3.36-.862v1.464zM94.569 216.034h-1.671l-1.366-3.611H86.07l-1.285 3.611h-1.68l4.942-12.883h1.563l4.959 12.883zm-3.531-4.968l-2.021-5.49c-.066-.179-.132-.467-.198-.862h-.036c-.06.365-.129.653-.206.862l-2.004 5.49h4.465zM102.763 204.516h-3.72v11.518h-1.509v-11.518h-3.711v-1.365h8.94v1.365zM107.552 203.151v1.293h-1.258v10.297h1.258v1.293h-4.025v-1.293h1.257v-10.297h-1.257v-1.293h4.025zM114.874 216.25c-1.827 0-3.29-.602-4.389-1.806-1.099-1.204-1.649-2.77-1.649-4.699 0-2.072.56-3.725 1.68-4.959 1.12-1.234 2.645-1.851 4.573-1.851 1.779 0 3.212.599 4.299 1.797 1.088 1.198 1.631 2.764 1.631 4.699 0 2.102-.557 3.764-1.671 4.986-1.114 1.222-2.605 1.833-4.474 1.833zm.108-11.949c-1.354 0-2.453.488-3.298 1.464-.844.976-1.266 2.258-1.266 3.845 0 1.588.411 2.865 1.235 3.832.824.968 1.897 1.451 3.221 1.451 1.413 0 2.527-.461 3.342-1.383.815-.923 1.222-2.213 1.222-3.873 0-1.701-.395-3.015-1.186-3.944-.791-.928-1.881-1.392-3.27-1.392zM133.939 216.034h-1.851l-6.631-10.269a4.337 4.337 0 0 1-.413-.808h-.054c.048.275.072.865.072 1.769v9.308h-1.509v-12.883h1.958l6.451 10.107c.27.419.443.707.521.863h.036c-.06-.372-.09-1.004-.09-1.896v-9.074h1.51v12.883zM151.126 215.495c-.953.503-2.138.755-3.558.755-1.833 0-3.3-.59-4.402-1.77-1.102-1.18-1.653-2.728-1.653-4.645 0-2.06.619-3.725 1.859-4.995s2.812-1.905 4.717-1.905c1.222 0 2.234.177 3.037.53v1.608c-.923-.515-1.941-.772-3.055-.772-1.479 0-2.679.494-3.598 1.482-.92.988-1.379 2.309-1.379 3.962 0 1.569.43 2.82 1.289 3.751.86.932 1.987 1.397 3.383 1.397 1.293 0 2.413-.287 3.36-.862v1.464zM162.985 216.034h-1.797l-2.156-3.611a7.756 7.756 0 0 0-.575-.858 3.31 3.31 0 0 0-.57-.58 1.984 1.984 0 0 0-.629-.328 2.588 2.588 0 0 0-.76-.103h-1.239v5.48h-1.51v-12.883h3.846c.563 0 1.082.07 1.558.211.477.141.89.355 1.24.642.351.288.625.646.822 1.074.198.428.297.93.297 1.505 0 .449-.068.861-.202 1.235a3.253 3.253 0 0 1-.575 1.002 3.502 3.502 0 0 1-.899.75c-.35.207-.744.367-1.181.481v.036c.215.095.403.205.561.328.159.122.31.268.454.435.144.168.286.358.427.571.14.212.298.459.471.741l2.417 3.872zm-7.726-11.518v4.672h2.048c.377 0 .726-.057 1.047-.171.32-.113.597-.277.831-.489a2.23 2.23 0 0 0 .548-.782 2.61 2.61 0 0 0 .197-1.038c0-.688-.223-1.226-.669-1.612-.446-.387-1.091-.58-1.936-.58h-2.066zM171.583 216.034h-6.828v-12.883h6.541v1.365h-5.032v4.286h4.654v1.356h-4.654v4.511h5.319v1.365zM184.125 216.034h-1.671l-1.365-3.611h-5.463l-1.285 3.611h-1.68l4.942-12.883h1.563l4.959 12.883zm-3.53-4.968l-2.022-5.49c-.066-.179-.132-.467-.198-.862h-.036a4.72 4.72 0 0 1-.206.862l-2.004 5.49h4.466zM192.319 204.516H188.6v11.518h-1.51v-11.518h-3.71v-1.365h8.939v1.365zM198.707 216.25c-1.827 0-3.29-.602-4.389-1.806-1.099-1.204-1.648-2.77-1.648-4.699 0-2.072.56-3.725 1.68-4.959 1.12-1.234 2.644-1.851 4.573-1.851 1.779 0 3.212.599 4.299 1.797 1.087 1.198 1.63 2.764 1.63 4.699 0 2.102-.557 3.764-1.671 4.986-1.114 1.222-2.605 1.833-4.474 1.833zm.108-11.949c-1.354 0-2.453.488-3.297 1.464-.845.976-1.267 2.258-1.267 3.845 0 1.588.412 2.865 1.235 3.832.824.968 1.897 1.451 3.221 1.451 1.414 0 2.528-.461 3.342-1.383.815-.923 1.222-2.213 1.222-3.873 0-1.701-.395-3.015-1.186-3.944-.79-.928-1.881-1.392-3.27-1.392zM216.622 216.034h-1.797l-2.156-3.611a7.9 7.9 0 0 0-.575-.858 3.278 3.278 0 0 0-.571-.58 1.963 1.963 0 0 0-.629-.328 2.576 2.576 0 0 0-.759-.103h-1.24v5.48h-1.509v-12.883h3.845c.563 0 1.083.07 1.559.211s.89.355 1.24.642c.35.288.624.646.822 1.074.198.428.296.93.296 1.505 0 .449-.067.861-.202 1.235a3.214 3.214 0 0 1-.575 1.002 3.497 3.497 0 0 1-.898.75 4.583 4.583 0 0 1-1.182.481v.036c.216.095.403.205.562.328.159.122.31.268.454.435.143.168.286.358.426.571.141.212.298.459.472.741l2.417 3.872zm-7.727-11.518v4.672h2.049c.377 0 .726-.057 1.046-.171.321-.113.598-.277.832-.489a2.23 2.23 0 0 0 .548-.782c.131-.308.197-.654.197-1.038 0-.688-.223-1.226-.669-1.612-.446-.387-1.092-.58-1.936-.58h-2.067zM74.278 238.25c-1.827 0-3.29-.602-4.389-1.806-1.099-1.204-1.649-2.77-1.649-4.699 0-2.072.56-3.725 1.681-4.959 1.12-1.234 2.644-1.851 4.573-1.851 1.778 0 3.211.599 4.299 1.797 1.087 1.198 1.63 2.764 1.63 4.699 0 2.102-.557 3.764-1.671 4.986-1.114 1.222-2.605 1.833-4.474 1.833zm.108-11.949c-1.354 0-2.453.488-3.298 1.464-.844.976-1.266 2.258-1.266 3.845 0 1.588.411 2.865 1.235 3.832.824.968 1.897 1.451 3.221 1.451 1.413 0 2.528-.461 3.342-1.383.815-.923 1.222-2.213 1.222-3.873 0-1.701-.395-3.015-1.186-3.944-.791-.928-1.881-1.392-3.27-1.392zM89.497 226.516h-5.031v4.457h4.654v1.356h-4.654v5.705h-1.509v-12.883h6.54v1.365zM104.6 226.516h-3.719v11.518h-1.51v-11.518h-3.71v-1.365h8.939v1.365zM116.307 238.034h-1.51v-5.876h-6.666v5.876h-1.509v-12.883h1.509v5.651h6.666v-5.651h1.51v12.883zM126.513 238.034h-6.828v-12.883h6.541v1.365h-5.032v4.286h4.654v1.356h-4.654v4.511h5.319v1.365zM142.406 225.151l-4.249 8.122v4.761h-1.51v-4.726l-4.141-8.157h1.716l2.884 5.822c.036.071.14.335.314.79h.027c.06-.203.174-.467.341-.79l3.019-5.822h1.599zM151.031 238.034h-6.828v-12.883h6.541v1.365h-5.031v4.286h4.654v1.356h-4.654v4.511h5.318v1.365zM163.574 238.034h-1.671l-1.366-3.611h-5.463l-1.284 3.611h-1.68l4.941-12.883h1.563l4.96 12.883zm-3.531-4.968l-2.022-5.49c-.066-.179-.131-.467-.197-.862h-.036c-.06.365-.129.653-.207.862l-2.003 5.49h4.465zM174.705 238.034h-1.797l-2.156-3.611a7.619 7.619 0 0 0-.575-.858 3.31 3.31 0 0 0-.57-.58 1.984 1.984 0 0 0-.629-.328 2.585 2.585 0 0 0-.759-.103h-1.24v5.48h-1.51v-12.883h3.846c.563 0 1.082.07 1.558.211.477.141.89.355 1.24.642.351.288.625.646.822 1.074.198.428.297.93.297 1.505 0 .449-.068.861-.202 1.235a3.253 3.253 0 0 1-.575 1.002 3.502 3.502 0 0 1-.899.75c-.35.207-.744.367-1.181.481v.036c.215.095.403.205.561.328.159.122.31.268.454.435.144.168.286.358.427.571.141.212.298.459.471.741l2.417 3.872zm-7.726-11.518v4.672h2.048c.378 0 .726-.057 1.047-.171.32-.113.597-.277.831-.489a2.23 2.23 0 0 0 .548-.782 2.61 2.61 0 0 0 .198-1.038c0-.688-.224-1.226-.67-1.612-.446-.387-1.091-.58-1.936-.58h-2.066z"/></g><path d="M121.091 137.783l-4.631-4.555h9.263l-4.632 4.555zM121.034 144.227l-4.631 4.555h9.263l-4.632-4.555z" fill="#767676"/><path d="M238.922 3.162H3.162v244.921l117.872 26.494 117.888-26.494V3.162zM3.162 181.3h235.76" fill="none" stroke="#767676" stroke-width="2"/><path d="M94.172 112.632h51.769M121.091 104.907h-7.737l-10.346-10.303a4.058 4.058 0 0 0-6.922 2.875v28.384l-3.558 3.68s-1.409 13.26 11.988 19.751c11.005 5.332 16.526-1.893 16.526-1.893M121.091 104.907h7.737l10.346-10.303a4.058 4.058 0 0 1 6.922 2.875v28.384l3.558 3.68s1.409 13.26-11.988 19.751c-11.005 5.332-16.526-1.893-16.526-1.893M150.207 108.613l-4.266 4.019M150.207 120.354l-4.266-7.722" fill="none" stroke="#767676" stroke-width="3.5" stroke-linecap="round"/><ellipse cx="109.485" cy="122.208" rx="3.988" ry="5.872" fill="#767676"/><ellipse cx="132.594" cy="122.208" rx="3.988" ry="5.872" fill="#767676"/><path d="M128.824 151.256c5.318 0 9.636-4.318 9.636-9.636s-4.318-9.636-9.636-9.636h-15.466c-5.318 0-9.636 4.318-9.636 9.636s4.318 9.636 9.636 9.636" fill="none" stroke="#767676" stroke-width="3.5" stroke-linecap="round"/></svg>