<svg width="25" height="31" viewBox="0 0 25 31" fill="none" xmlns="http://www.w3.org/2000/svg">
<g clip-path="url(#clip0_85_119)">
<path d="M18.4006 0.16748C18.472 0.16748 18.5434 0.16748 18.6187 0.16748C18.7938 2.33004 17.9684 3.9459 16.9652 5.11605C15.9809 6.27812 14.633 7.40518 12.453 7.23414C12.3075 5.10258 13.1343 3.60657 14.1361 2.43911C15.0653 1.3511 16.7686 0.382927 18.4006 0.16748Z" fill="#4A4A4A"/>
<path d="M25 22.6764C25 22.6979 25 22.7167 25 22.7369C24.3874 24.5925 23.5134 26.1827 22.447 27.6586C21.4734 28.9984 20.2804 30.8014 18.1501 30.8014C16.3094 30.8014 15.0867 29.6178 13.2002 29.5855C11.2046 29.5532 10.1072 30.5752 8.28265 30.8324C8.07387 30.8324 7.86518 30.8324 7.66049 30.8324C6.32069 30.6385 5.23941 29.5774 4.45166 28.6214C2.12889 25.7963 0.333941 22.1471 0 17.4773C0 17.0195 0 16.5631 0 16.1052C0.141391 12.7631 1.76532 10.0457 3.92385 8.72884C5.063 8.02857 6.62904 7.43205 8.37286 7.69866C9.12014 7.81451 9.8837 8.0703 10.5529 8.32346C11.1871 8.56725 11.9803 8.99945 12.7316 8.97654C13.2406 8.96172 13.7469 8.69647 14.2599 8.50933C15.7627 7.96664 17.2358 7.34457 19.1776 7.63674C21.5111 7.98955 23.1673 9.02637 24.1908 10.6261C22.2167 11.8824 20.6561 13.7757 20.9227 17.0087C21.1596 19.9456 22.8671 21.6637 25 22.6764Z" fill="#4A4A4A"/>
</g>
<defs>
<clipPath id="clip0_85_119">
<rect width="25" height="30.6649" fill="white" transform="translate(0 0.16748)"/>
</clipPath>
</defs>
</svg>
