<svg width="125" height="126" viewBox="0 0 125 126" fill="none" xmlns="http://www.w3.org/2000/svg">
<path fill-rule="evenodd" clip-rule="evenodd" d="M125 12.3745C125 5.63721 119.53 0.16748 112.793 0.16748H12.207C5.46973 0.16748 0 5.63721 0 12.3745V112.96C0 119.698 5.46973 125.167 12.207 125.167H112.793C119.53 125.167 125 119.698 125 112.96V12.3745Z" fill="#4E3188"/>
<path fill-rule="evenodd" clip-rule="evenodd" d="M115.845 79.5238V111.129C115.845 113.792 113.71 115.959 111.06 116.011L78.7817 116.011L57.7075 79.5238H115.845ZM73.9795 116.011H16.8774L45.4443 66.6075L73.9795 116.011ZM12.2925 115.69C10.5652 115.028 9.3091 113.413 9.16871 111.491L9.15527 89.7063L32.3694 49.5145H50.5139L12.2925 115.69ZM67.1082 49.4394C68.689 49.446 70.2014 50.3746 71.0181 51.7509C71.0266 51.7648 71.0425 51.7928 71.0425 51.7928L75.8398 60.1L75.8814 60.1688C76.665 61.5402 76.6956 63.2681 75.9119 64.6643C74.3042 67.477 72.6709 70.2762 71.0498 73.0823C70.2539 74.4469 68.7476 75.3373 67.146 75.3572C64.0906 75.37 57.9639 75.3629 57.9553 75.3629C56.3745 75.3563 54.8376 74.5134 54.0198 73.1372C54.0015 73.1074 53.9673 73.0465 53.9673 73.0465C53.9673 73.0465 49.1675 64.7385 49.1577 64.7192C48.3728 63.3479 48.374 61.5763 49.1577 60.18C49.1687 60.1595 49.1931 60.1185 49.1931 60.1185C49.1931 60.1185 52.4048 54.5475 54.0124 51.762C54.8083 50.3973 56.3184 49.4585 57.9187 49.4385C57.9455 49.4384 57.9992 49.4371 57.9992 49.4371L67.0532 49.4394H67.1082ZM112.535 9.58228L74.541 75.3629H115.845V14.2056C115.845 12.0613 114.459 10.2379 112.535 9.58228ZM55.5835 9.32275H107.882L79.5984 58.2921L53.4497 13.0186L55.5835 9.32275ZM67.3242 45.3568H34.7705L51.0474 17.1763L67.3242 45.3568Z" fill="url(#paint0_radial_85_137)"/>
<defs>
<radialGradient id="paint0_radial_85_137" cx="0" cy="0" r="1" gradientUnits="userSpaceOnUse" gradientTransform="translate(90.7019 -10.7284) scale(126.739 126.739)">
<stop stop-color="#F9A6FF"/>
<stop offset="1" stop-color="#EA73FF"/>
</radialGradient>
</defs>
</svg>
