<svg width="125" height="126" viewBox="0 0 125 126" fill="none" xmlns="http://www.w3.org/2000/svg">
<rect y="0.16748" width="125" height="125" rx="10" fill="#891B26"/>
<path fill-rule="evenodd" clip-rule="evenodd" d="M56.7459 116.113L25.276 61.7518L8.99902 89.8679V111.241C8.99902 113.93 11.1865 116.113 13.8819 116.113H56.7459ZM79.694 116.113H61.5494C61.5494 116.113 38.0446 75.4972 30.1698 61.909C29.4112 60.5999 29.0117 59.1145 29.0115 57.6024C29.0113 56.0902 29.4103 54.6047 30.1686 53.2954C33.0165 48.379 36.7506 41.9311 36.7506 41.9311L79.694 116.113ZM102.642 116.113H84.4975L39.4179 37.3229L48.2241 22.1124L102.642 116.113ZM115.689 99.0108V111.241C115.689 113.93 113.502 116.113 110.806 116.113H107.446L50.6252 17.9641L55.4287 9.6676H63.9675L115.689 99.0108ZM110.806 9.6676H68.7699L115.689 90.7141V14.5392C115.689 11.8505 113.502 9.6676 110.806 9.6676Z" fill="url(#paint0_radial_85_149)"/>
<defs>
<radialGradient id="paint0_radial_85_149" cx="0" cy="0" r="1" gradientUnits="userSpaceOnUse" gradientTransform="translate(90.5363 -10.3378) scale(126.741 126.451)">
<stop stop-color="#FBA767"/>
<stop offset="1" stop-color="#FF9350"/>
</radialGradient>
</defs>
</svg>
